<?xml version="1.0" encoding="UTF-8" standalone="no"?>
<!-- Created with Inkscape (http://www.inkscape.org/) -->

<svg
   xmlns:dc="http://purl.org/dc/elements/1.1/"
   xmlns:cc="http://creativecommons.org/ns#"
   xmlns:rdf="http://www.w3.org/1999/02/22-rdf-syntax-ns#"
   xmlns:svg="http://www.w3.org/2000/svg"
   xmlns="http://www.w3.org/2000/svg"
   xmlns:sodipodi="http://sodipodi.sourceforge.net/DTD/sodipodi-0.dtd"
   xmlns:inkscape="http://www.inkscape.org/namespaces/inkscape"
   width="210mm"
   height="297mm"
   viewBox="0 0 744.09448819 1052.3622047"
   id="svg8606"
   version="1.1"
   inkscape:version="0.91 r13725"
   sodipodi:docname="template-switch.svg"
   inkscape:export-filename="/home/will/Documents/reports/_images/projects/igseq/pipelines/template-switch.png"
   inkscape:export-xdpi="300"
   inkscape:export-ydpi="300">
  <defs
     id="defs8608">
    <marker
       inkscape:stockid="Arrow1Mend"
       orient="auto"
       refY="0.0"
       refX="0.0"
       id="marker12491"
       style="overflow:visible;"
       inkscape:isstock="true">
      <path
         id="path12493"
         d="M 0.0,0.0 L 5.0,-5.0 L -12.5,0.0 L 5.0,5.0 L 0.0,0.0 z "
         style="fill-rule:evenodd;stroke:#000000;stroke-width:1pt;stroke-opacity:1;fill:#000000;fill-opacity:1"
         transform="scale(0.4) rotate(180) translate(10,0)" />
    </marker>
    <marker
       inkscape:isstock="true"
       style="overflow:visible;"
       id="marker12323"
       refX="0.0"
       refY="0.0"
       orient="auto"
       inkscape:stockid="Arrow1Mend"
       inkscape:collect="always">
      <path
         transform="scale(0.4) rotate(180) translate(10,0)"
         style="fill-rule:evenodd;stroke:#000000;stroke-width:1pt;stroke-opacity:1;fill:#000000;fill-opacity:1"
         d="M 0.0,0.0 L 5.0,-5.0 L -12.5,0.0 L 5.0,5.0 L 0.0,0.0 z "
         id="path12325" />
    </marker>
    <marker
       inkscape:stockid="Arrow1Mend"
       orient="auto"
       refY="0.0"
       refX="0.0"
       id="marker11977"
       style="overflow:visible;"
       inkscape:isstock="true">
      <path
         id="path11979"
         d="M 0.0,0.0 L 5.0,-5.0 L -12.5,0.0 L 5.0,5.0 L 0.0,0.0 z "
         style="fill-rule:evenodd;stroke:#000000;stroke-width:1pt;stroke-opacity:1;fill:#000000;fill-opacity:1"
         transform="scale(0.4) rotate(180) translate(10,0)" />
    </marker>
    <marker
       inkscape:stockid="Arrow1Mend"
       orient="auto"
       refY="0.0"
       refX="0.0"
       id="marker11435"
       style="overflow:visible;"
       inkscape:isstock="true"
       inkscape:collect="always">
      <path
         id="path11437"
         d="M 0.0,0.0 L 5.0,-5.0 L -12.5,0.0 L 5.0,5.0 L 0.0,0.0 z "
         style="fill-rule:evenodd;stroke:#000000;stroke-width:1pt;stroke-opacity:1;fill:#000000;fill-opacity:1"
         transform="scale(0.4) rotate(180) translate(10,0)" />
    </marker>
    <marker
       inkscape:isstock="true"
       style="overflow:visible;"
       id="marker11363"
       refX="0.0"
       refY="0.0"
       orient="auto"
       inkscape:stockid="Arrow1Mend"
       inkscape:collect="always">
      <path
         transform="scale(0.4) rotate(180) translate(10,0)"
         style="fill-rule:evenodd;stroke:#000000;stroke-width:1pt;stroke-opacity:1;fill:#000000;fill-opacity:1"
         d="M 0.0,0.0 L 5.0,-5.0 L -12.5,0.0 L 5.0,5.0 L 0.0,0.0 z "
         id="path11365" />
    </marker>
    <marker
       inkscape:stockid="Arrow1Mend"
       orient="auto"
       refY="0.0"
       refX="0.0"
       id="marker11204"
       style="overflow:visible;"
       inkscape:isstock="true">
      <path
         id="path11206"
         d="M 0.0,0.0 L 5.0,-5.0 L -12.5,0.0 L 5.0,5.0 L 0.0,0.0 z "
         style="fill-rule:evenodd;stroke:#000000;stroke-width:1pt;stroke-opacity:1;fill:#000000;fill-opacity:1"
         transform="scale(0.4) rotate(180) translate(10,0)" />
    </marker>
    <marker
       inkscape:isstock="true"
       style="overflow:visible;"
       id="marker10035"
       refX="0.0"
       refY="0.0"
       orient="auto"
       inkscape:stockid="Arrow1Mend"
       inkscape:collect="always">
      <path
         transform="scale(0.4) rotate(180) translate(10,0)"
         style="fill-rule:evenodd;stroke:#000000;stroke-width:1pt;stroke-opacity:1;fill:#000000;fill-opacity:1"
         d="M 0.0,0.0 L 5.0,-5.0 L -12.5,0.0 L 5.0,5.0 L 0.0,0.0 z "
         id="path10037" />
    </marker>
    <marker
       inkscape:isstock="true"
       style="overflow:visible;"
       id="marker9730"
       refX="0.0"
       refY="0.0"
       orient="auto"
       inkscape:stockid="Arrow1Mend">
      <path
         transform="scale(0.4) rotate(180) translate(10,0)"
         style="fill-rule:evenodd;stroke:#000000;stroke-width:1pt;stroke-opacity:1;fill:#000000;fill-opacity:1"
         d="M 0.0,0.0 L 5.0,-5.0 L -12.5,0.0 L 5.0,5.0 L 0.0,0.0 z "
         id="path9732" />
    </marker>
    <marker
       inkscape:stockid="Arrow1Mend"
       orient="auto"
       refY="0.0"
       refX="0.0"
       id="Arrow1Mend"
       style="overflow:visible;"
       inkscape:isstock="true"
       inkscape:collect="always">
      <path
         id="path9253"
         d="M 0.0,0.0 L 5.0,-5.0 L -12.5,0.0 L 5.0,5.0 L 0.0,0.0 z "
         style="fill-rule:evenodd;stroke:#000000;stroke-width:1pt;stroke-opacity:1;fill:#000000;fill-opacity:1"
         transform="scale(0.4) rotate(180) translate(10,0)" />
    </marker>
    <marker
       inkscape:stockid="Arrow1Send"
       orient="auto"
       refY="0.0"
       refX="0.0"
       id="Arrow1Send"
       style="overflow:visible;"
       inkscape:isstock="true">
      <path
         id="path9259"
         d="M 0.0,0.0 L 5.0,-5.0 L -12.5,0.0 L 5.0,5.0 L 0.0,0.0 z "
         style="fill-rule:evenodd;stroke:#000000;stroke-width:1pt;stroke-opacity:1;fill:#000000;fill-opacity:1"
         transform="scale(0.2) rotate(180) translate(6,0)" />
    </marker>
  </defs>
  <sodipodi:namedview
     id="base"
     pagecolor="#ffffff"
     bordercolor="#666666"
     borderopacity="1.0"
     inkscape:pageopacity="0.0"
     inkscape:pageshadow="2"
     inkscape:zoom="1.4"
     inkscape:cx="524.27801"
     inkscape:cy="585.32313"
     inkscape:document-units="px"
     inkscape:current-layer="layer1"
     showgrid="true"
     inkscape:window-width="2560"
     inkscape:window-height="1545"
     inkscape:window-x="0"
     inkscape:window-y="31"
     inkscape:window-maximized="1">
    <inkscape:grid
       type="xygrid"
       id="grid9154" />
  </sodipodi:namedview>
  <metadata
     id="metadata8611">
    <rdf:RDF>
      <cc:Work
         rdf:about="">
        <dc:format>image/svg+xml</dc:format>
        <dc:type
           rdf:resource="http://purl.org/dc/dcmitype/StillImage" />
        <dc:title />
      </cc:Work>
    </rdf:RDF>
  </metadata>
  <g
     inkscape:label="Layer 1"
     inkscape:groupmode="layer"
     id="layer1">
    <g
       id="g11258"
       transform="matrix(0.88450421,0,0,0.88450421,81.99924,26.121389)"
       inkscape:export-filename="/home/will/Documents/thesis/_Figures/png_edited/template-switch-labelled"
       inkscape:export-xdpi="320"
       inkscape:export-ydpi="320">
      <ellipse
         ry="29.532465"
         rx="35.164448"
         cy="256.53586"
         cx="385"
         id="path9160"
         style="opacity:1;fill:#c6c7ff;fill-opacity:0.61176471;fill-rule:evenodd;stroke:#0007b3;stroke-width:1.67110312;stroke-miterlimit:4;stroke-dasharray:none;stroke-dashoffset:0;stroke-opacity:1" />
      <path
         inkscape:connector-curvature="0"
         id="path9156"
         d="m 611.11423,247.3622 -460,0"
         style="fill:none;fill-rule:evenodd;stroke:#000000;stroke-width:8;stroke-linecap:butt;stroke-linejoin:miter;stroke-miterlimit:4;stroke-dasharray:none;stroke-opacity:1" />
      <path
         style="fill:none;fill-rule:evenodd;stroke:#d90000;stroke-width:8;stroke-linecap:butt;stroke-linejoin:miter;stroke-miterlimit:4;stroke-dasharray:none;stroke-opacity:1"
         d="m 388.88067,260.97895 -15.53288,0"
         id="path9158"
         inkscape:connector-curvature="0" />
      <text
         sodipodi:linespacing="125%"
         id="text9230"
         y="253.4872"
         x="129.5368"
         style="font-style:normal;font-weight:normal;font-size:15px;line-height:125%;font-family:sans-serif;text-align:start;letter-spacing:0px;word-spacing:0px;writing-mode:lr-tb;text-anchor:start;fill:#000000;fill-opacity:1;stroke:none;stroke-width:1px;stroke-linecap:butt;stroke-linejoin:miter;stroke-opacity:1"
         xml:space="preserve"><tspan
           style="font-style:normal;font-variant:normal;font-weight:500;font-stretch:normal;font-size:20px;font-family:'CMU Sans Serif';-inkscape-font-specification:'CMU Sans Serif Medium'"
           y="253.4872"
           x="129.5368"
           id="tspan9232"
           sodipodi:role="line">5'</tspan></text>
      <text
         xml:space="preserve"
         style="font-style:normal;font-weight:normal;font-size:15px;line-height:125%;font-family:sans-serif;text-align:start;letter-spacing:0px;word-spacing:0px;writing-mode:lr-tb;text-anchor:start;fill:#000000;fill-opacity:1;stroke:none;stroke-width:1px;stroke-linecap:butt;stroke-linejoin:miter;stroke-opacity:1"
         x="618.64227"
         y="253.4872"
         id="text9234"
         sodipodi:linespacing="125%"><tspan
           sodipodi:role="line"
           id="tspan9236"
           x="618.64227"
           y="253.4872"
           style="font-style:normal;font-variant:normal;font-weight:500;font-stretch:normal;font-size:20px;font-family:'CMU Sans Serif';-inkscape-font-specification:'CMU Sans Serif Medium'">3'   mRNA</tspan></text>
      <path
         inkscape:connector-curvature="0"
         id="path9238"
         d="m 367,260.97895 -215,0"
         style="fill:none;fill-rule:evenodd;stroke:#000000;stroke-width:2;stroke-linecap:butt;stroke-linejoin:miter;stroke-miterlimit:4;stroke-dasharray:6, 6;stroke-dashoffset:0;stroke-opacity:1;marker-end:url(#Arrow1Mend)" />
    </g>
    <g
       id="g4347"
       inkscape:export-filename="/home/will/Documents/thesis/_Figures/png_edited/template-switch-labelled"
       inkscape:export-xdpi="320"
       inkscape:export-ydpi="320">
      <g
         transform="matrix(0.88450421,0,0,0.88450421,81.99924,47.31664)"
         id="g11268">
        <ellipse
           ry="29.532465"
           rx="35.164448"
           cy="341.38867"
           cx="140"
           id="ellipse9706"
           style="opacity:1;fill:#c6c7ff;fill-opacity:0.61176471;fill-rule:evenodd;stroke:#0007b3;stroke-width:1.67110312;stroke-miterlimit:4;stroke-dasharray:none;stroke-dashoffset:0;stroke-opacity:1" />
        <path
           inkscape:connector-curvature="0"
           id="path9708"
           d="m 611.11423,332.21501 -460,0"
           style="fill:none;fill-rule:evenodd;stroke:#000000;stroke-width:8;stroke-linecap:butt;stroke-linejoin:miter;stroke-miterlimit:4;stroke-dasharray:none;stroke-opacity:1" />
        <path
           style="fill:none;fill-rule:evenodd;stroke:#d90000;stroke-width:8;stroke-linecap:butt;stroke-linejoin:miter;stroke-miterlimit:4;stroke-dasharray:none;stroke-opacity:1"
           d="m 389.13321,345.83176 -238.01898,0"
           id="path9710"
           inkscape:connector-curvature="0"
           sodipodi:nodetypes="cc" />
        <text
           xml:space="preserve"
           style="font-style:normal;font-weight:normal;font-size:15px;line-height:125%;font-family:sans-serif;text-align:start;letter-spacing:0px;word-spacing:0px;writing-mode:lr-tb;text-anchor:start;fill:#000000;fill-opacity:1;stroke:none;stroke-width:1px;stroke-linecap:butt;stroke-linejoin:miter;stroke-opacity:1"
           x="618.64227"
           y="338.34003"
           id="text9716"
           sodipodi:linespacing="125%"><tspan
             sodipodi:role="line"
             id="tspan9718"
             x="618.64227"
             y="338.34003"
             style="font-style:normal;font-variant:normal;font-weight:500;font-stretch:normal;font-size:20px;font-family:'CMU Sans Serif';-inkscape-font-specification:'CMU Sans Serif Medium'">3'   mRNA</tspan></text>
        <text
           sodipodi:linespacing="125%"
           id="text9776"
           y="358.83176"
           x="618.64227"
           style="font-style:normal;font-weight:normal;font-size:15px;line-height:125%;font-family:sans-serif;text-align:start;letter-spacing:0px;word-spacing:0px;writing-mode:lr-tb;text-anchor:start;fill:#d90000;fill-opacity:1;stroke:none;stroke-width:1px;stroke-linecap:butt;stroke-linejoin:miter;stroke-opacity:1"
           xml:space="preserve"><tspan
             style="font-style:normal;font-variant:normal;font-weight:500;font-stretch:normal;font-size:20px;font-family:'CMU Sans Serif';-inkscape-font-specification:'CMU Sans Serif Medium';fill:#d90000;fill-opacity:1"
             y="358.83176"
             x="618.64227"
             id="tspan9778"
             sodipodi:role="line">5'   cDNA</tspan></text>
        <text
           sodipodi:linespacing="125%"
           id="text9938"
           y="354.21176"
           x="115.17857"
           style="font-style:normal;font-weight:normal;font-size:15px;line-height:125%;font-family:sans-serif;text-align:start;letter-spacing:0px;word-spacing:0px;writing-mode:lr-tb;text-anchor:start;fill:#d90000;fill-opacity:1;stroke:none;stroke-width:1px;stroke-linecap:butt;stroke-linejoin:miter;stroke-opacity:1"
           xml:space="preserve"><tspan
             style="font-style:normal;font-variant:normal;font-weight:bold;font-stretch:normal;font-size:20px;font-family:'CMU Typewriter Text';-inkscape-font-specification:'CMU Typewriter Text Bold';fill:#d90000;fill-opacity:1"
             y="354.21176"
             x="115.17857"
             id="tspan9940"
             sodipodi:role="line">CCC</tspan></text>
      </g>
    </g>
    <g
       id="g12465"
       transform="matrix(0.88450421,0,0,0.88450421,81.99924,26.121428)"
       inkscape:export-filename="/home/will/Documents/thesis/_Figures/png_edited/template-switch-labelled"
       inkscape:export-xdpi="320"
       inkscape:export-ydpi="320">
      <path
         inkscape:connector-curvature="0"
         id="path9957"
         d="m 611.11423,452.33915 -460,0"
         style="fill:#0500d9;fill-opacity:1;fill-rule:evenodd;stroke:#000000;stroke-width:8;stroke-linecap:butt;stroke-linejoin:miter;stroke-miterlimit:4;stroke-dasharray:none;stroke-opacity:1" />
      <path
         style="fill:none;fill-rule:evenodd;stroke:#d90000;stroke-width:8;stroke-linecap:butt;stroke-linejoin:miter;stroke-miterlimit:4;stroke-dasharray:none;stroke-opacity:1"
         d="m 389.13321,465.9559 -238.01898,0"
         id="path9959"
         inkscape:connector-curvature="0"
         sodipodi:nodetypes="cc" />
      <text
         xml:space="preserve"
         style="font-style:normal;font-weight:normal;font-size:15px;line-height:125%;font-family:sans-serif;text-align:start;letter-spacing:0px;word-spacing:0px;writing-mode:lr-tb;text-anchor:start;fill:#000000;fill-opacity:1;stroke:none;stroke-width:1px;stroke-linecap:butt;stroke-linejoin:miter;stroke-opacity:1"
         x="618.64227"
         y="458.46417"
         id="text9961"
         sodipodi:linespacing="125%"><tspan
           sodipodi:role="line"
           id="tspan9963"
           x="618.64227"
           y="458.46417"
           style="font-style:normal;font-variant:normal;font-weight:500;font-stretch:normal;font-size:20px;font-family:'CMU Sans Serif';-inkscape-font-specification:'CMU Sans Serif Medium'">3'   mRNA</tspan></text>
      <text
         sodipodi:linespacing="125%"
         id="text9965"
         y="478.9559"
         x="618.64227"
         style="font-style:normal;font-weight:normal;font-size:15px;line-height:125%;font-family:sans-serif;text-align:start;letter-spacing:0px;word-spacing:0px;writing-mode:lr-tb;text-anchor:start;fill:#d90000;fill-opacity:1;stroke:none;stroke-width:1px;stroke-linecap:butt;stroke-linejoin:miter;stroke-opacity:1"
         xml:space="preserve"><tspan
           style="font-style:normal;font-variant:normal;font-weight:500;font-stretch:normal;font-size:20px;font-family:'CMU Sans Serif';-inkscape-font-specification:'CMU Sans Serif Medium';fill:#d90000;fill-opacity:1"
           y="478.9559"
           x="618.64227"
           id="tspan9967"
           sodipodi:role="line">5'   cDNA</tspan></text>
      <text
         sodipodi:linespacing="125%"
         id="text9969"
         y="474.33591"
         x="115.17857"
         style="font-style:normal;font-weight:normal;font-size:15px;line-height:125%;font-family:sans-serif;text-align:start;letter-spacing:0px;word-spacing:0px;writing-mode:lr-tb;text-anchor:start;fill:#d90000;fill-opacity:1;stroke:none;stroke-width:1px;stroke-linecap:butt;stroke-linejoin:miter;stroke-opacity:1"
         xml:space="preserve"><tspan
           style="font-style:normal;font-variant:normal;font-weight:bold;font-stretch:normal;font-size:20px;font-family:'CMU Typewriter Text';-inkscape-font-specification:'CMU Typewriter Text Bold';fill:#d90000;fill-opacity:1"
           y="474.33591"
           x="115.17857"
           id="tspan9971"
           sodipodi:role="line">CCC</tspan></text>
      <text
         xml:space="preserve"
         style="font-style:normal;font-weight:normal;font-size:15px;line-height:125%;font-family:sans-serif;text-align:start;letter-spacing:0px;word-spacing:0px;writing-mode:lr-tb;text-anchor:start;fill:#0500d9;fill-opacity:1;stroke:none;stroke-width:1px;stroke-linecap:butt;stroke-linejoin:miter;stroke-opacity:1"
         x="115.17857"
         y="456.17914"
         id="text9982"
         sodipodi:linespacing="125%"><tspan
           sodipodi:role="line"
           id="tspan9984"
           x="115.17857"
           y="456.17914"
           style="font-style:normal;font-variant:normal;font-weight:bold;font-stretch:normal;font-size:20px;font-family:'CMU Typewriter Text';-inkscape-font-specification:'CMU Typewriter Text Bold';fill:#0500d9;fill-opacity:1">GGG</tspan></text>
      <path
         sodipodi:nodetypes="cc"
         style="fill:#0500d9;fill-opacity:1;fill-rule:evenodd;stroke:#0500d9;stroke-width:8;stroke-linecap:butt;stroke-linejoin:miter;stroke-miterlimit:4;stroke-dasharray:none;stroke-opacity:1"
         d="m 61.471372,452.33915 48.571428,0"
         id="path9986"
         inkscape:connector-curvature="0" />
    </g>
    <g
       id="g11292"
       transform="matrix(0.88450421,0,0,0.88450421,81.99924,53.622376)"
       inkscape:export-filename="/home/will/Documents/thesis/_Figures/png_edited/template-switch-labelled"
       inkscape:export-xdpi="320"
       inkscape:export-ydpi="320">
      <g
         id="g11108">
        <ellipse
           style="opacity:1;fill:#c6c7ff;fill-opacity:0.61176471;fill-rule:evenodd;stroke:#0007b3;stroke-width:1.67110312;stroke-miterlimit:4;stroke-dasharray:none;stroke-dashoffset:0;stroke-opacity:1"
           id="ellipse10025"
           cx="132.42386"
           cy="526.75165"
           rx="35.164448"
           ry="29.532465" />
        <path
           inkscape:connector-curvature="0"
           id="path10033"
           d="m 109.97759,533.21506 -44.686191,0"
           style="fill:none;fill-rule:evenodd;stroke:#000000;stroke-width:2;stroke-linecap:butt;stroke-linejoin:miter;stroke-miterlimit:4;stroke-dasharray:6, 6;stroke-dashoffset:0;stroke-opacity:1;marker-end:url(#marker10035)"
           sodipodi:nodetypes="cc" />
        <path
           inkscape:connector-curvature="0"
           id="path10003"
           d="m 611.11423,519.59831 -460,0"
           style="fill:#0500d9;fill-opacity:1;fill-rule:evenodd;stroke:#000000;stroke-width:8;stroke-linecap:butt;stroke-linejoin:miter;stroke-miterlimit:4;stroke-dasharray:none;stroke-opacity:1" />
        <path
           style="fill:none;fill-rule:evenodd;stroke:#d90000;stroke-width:8;stroke-linecap:butt;stroke-linejoin:miter;stroke-miterlimit:4;stroke-dasharray:none;stroke-opacity:1"
           d="m 389.13321,533.21506 -238.01898,0"
           id="path10005"
           inkscape:connector-curvature="0"
           sodipodi:nodetypes="cc" />
        <g
           id="text10007"
           style="font-style:normal;font-weight:normal;font-size:15px;line-height:125%;font-family:sans-serif;text-align:start;letter-spacing:0px;word-spacing:0px;writing-mode:lr-tb;text-anchor:start;fill:#000000;fill-opacity:1;stroke:none;stroke-width:1px;stroke-linecap:butt;stroke-linejoin:miter;stroke-opacity:1"
           transform="translate(0,104.55079)">
          <path
             inkscape:connector-curvature="0"
             id="path10283"
             style="font-style:normal;font-variant:normal;font-weight:500;font-stretch:normal;font-size:20px;font-family:'CMU Sans Serif';-inkscape-font-specification:'CMU Sans Serif Medium'"
             d="m 619.46227,419.55255 0.22,-1.22 q 0.64,0.86 1.5,1.36 0.88,0.5 1.38,0.6 0.5,0.08 0.96,0.08 1.1,0 1.78,-0.8 0.68,-0.8 0.68,-2.04 0,-1.16 -0.66,-1.98 -0.64,-0.84 -1.9,-0.84 l -1.46,0 0,-1.24 q 0.48,-0.04 0.82,-0.06 0.36,-0.04 0.46,-0.04 0.1,-0.02 0.16,-0.02 0.96,-0.18 1.56,-0.96 0.62,-0.78 0.62,-1.72 0,-0.84 -0.56,-1.34 -0.56,-0.52 -1.46,-0.52 -1.76,0 -2.78,1.5 -0.12,0.18 -0.32,0.58 l -0.72,-1.1 q 1.38,-2.18 3.86,-2.18 1.52,0 2.56,0.9 1.06,0.9 1.06,2.16 0,2.16 -2.22,3.42 1.38,0.48 2.08,1.42 0.7,0.94 0.7,2.06 0,1.62 -1.22,2.84 -1.2,1.2 -3.02,1.2 -2.46,0 -4.08,-2.06 z" />
          <path
             inkscape:connector-curvature="0"
             id="path10285"
             style="font-style:normal;font-variant:normal;font-weight:500;font-stretch:normal;font-size:20px;font-family:'CMU Sans Serif';-inkscape-font-specification:'CMU Sans Serif Medium'"
             d="m 630.62227,406.73255 1.56,0 -0.12,5.14 -0.04,2.04 0,0.02 -1.22,0 -0.02,-0.02 -0.16,-7.18 z" />
          <path
             inkscape:connector-curvature="0"
             id="path10287"
             style="font-style:normal;font-variant:normal;font-weight:500;font-stretch:normal;font-size:20px;font-family:'CMU Sans Serif';-inkscape-font-specification:'CMU Sans Serif Medium'"
             d="m 655.82821,421.17255 0,-9 1.46,0 0,1.4 q 1.16,-1.5 2.92,-1.5 1.94,0 2.54,1.62 1.22,-1.62 3.02,-1.62 0.76,0 1.3,0.26 0.56,0.24 0.82,0.58 0.28,0.32 0.42,0.84 0.16,0.52 0.18,0.86 0.02,0.32 0.02,0.8 l 0,5.76 -1.58,0 0,-5.62 q 0,-0.04 0,-0.12 0,-0.08 -0.04,-0.32 -0.04,-0.24 -0.12,-0.44 -0.06,-0.22 -0.2,-0.48 -0.14,-0.26 -0.34,-0.44 -0.2,-0.2 -0.52,-0.32 -0.32,-0.14 -0.72,-0.14 -1.06,0 -1.56,0.9 -0.48,0.9 -0.48,2.18 l 0,4.8 -1.56,0 0,-5.62 q 0,-0.34 -0.02,-0.54 0,-0.2 -0.12,-0.56 -0.1,-0.38 -0.3,-0.6 -0.18,-0.22 -0.58,-0.38 -0.38,-0.18 -0.94,-0.18 -1.06,0 -1.56,0.9 -0.48,0.9 -0.48,2.18 l 0,4.8 -1.56,0 z" />
          <path
             inkscape:connector-curvature="0"
             id="path10289"
             style="font-style:normal;font-variant:normal;font-weight:500;font-stretch:normal;font-size:20px;font-family:'CMU Sans Serif';-inkscape-font-specification:'CMU Sans Serif Medium'"
             d="m 672.02665,421.17255 0,-13.88 4.52,0 q 1.44,0 2.52,0.38 1.1,0.36 1.68,0.96 0.6,0.58 0.88,1.2 0.28,0.6 0.28,1.18 0,1.16 -0.88,2.16 -0.88,1 -2.54,1.48 l 3.98,6.52 -1.8,0 -3.74,-6.32 -3.16,0 0,6.32 -1.74,0 z m 1.74,-7.56 2.64,0 q 2.1,0 2.98,-0.78 0.9,-0.8 0.9,-1.8 0,-0.44 -0.18,-0.86 -0.18,-0.42 -0.58,-0.82 -0.4,-0.42 -1.2,-0.68 -0.78,-0.26 -1.86,-0.26 l -2.7,0 0,5.2 z" />
          <path
             inkscape:connector-curvature="0"
             id="path10291"
             style="font-style:normal;font-variant:normal;font-weight:500;font-stretch:normal;font-size:20px;font-family:'CMU Sans Serif';-inkscape-font-specification:'CMU Sans Serif Medium'"
             d="m 684.95634,421.17255 0,-13.88 2.5,0 5.48,10.88 0.78,1.6 0,-12.48 1.56,0 0,13.88 -2.5,0 -5.48,-10.88 -0.78,-1.6 0,12.48 -1.56,0 z" />
          <path
             inkscape:connector-curvature="0"
             id="path10293"
             style="font-style:normal;font-variant:normal;font-weight:500;font-stretch:normal;font-size:20px;font-family:'CMU Sans Serif';-inkscape-font-specification:'CMU Sans Serif Medium'"
             d="m 697.77602,421.17255 5.22,-13.88 1.78,0 5.2,13.88 -1.84,0 -1.54,-4.08 -5.8,0 -1.52,4.08 -1.5,0 z m 3.44,-5.2 4.96,0 q -2.36,-6.54 -2.48,-7.28 -0.26,1.22 -2.48,7.28 z" />
        </g>
        <g
           id="text10011"
           style="font-style:normal;font-weight:normal;font-size:15px;line-height:125%;font-family:sans-serif;text-align:start;letter-spacing:0px;word-spacing:0px;writing-mode:lr-tb;text-anchor:start;fill:#d90000;fill-opacity:1;stroke:none;stroke-width:1px;stroke-linecap:butt;stroke-linejoin:miter;stroke-opacity:1"
           transform="translate(0,104.55079)">
          <path
             inkscape:connector-curvature="0"
             id="path10296"
             style="font-style:normal;font-variant:normal;font-weight:500;font-stretch:normal;font-size:20px;font-family:'CMU Sans Serif';-inkscape-font-specification:'CMU Sans Serif Medium';fill:#d90000;fill-opacity:1"
             d="m 619.40227,440.14428 0.68,-1.12 q 1.12,1.84 3.12,1.84 1,0 1.8,-0.76 0.82,-0.78 0.82,-2.54 0,-1.64 -0.6,-2.42 -0.58,-0.8 -1.44,-0.8 -1.36,0 -2.2,1.6 l -1.36,0 0,-7.38 6.74,0 0,1.28 -5.28,0 0,4.1 q 1.02,-0.82 2.14,-0.82 1.54,0 2.66,1.3 1.14,1.28 1.14,3.16 0,1.92 -1.32,3.22 -1.3,1.3 -3.08,1.3 -1.14,0 -2.16,-0.52 -1.02,-0.54 -1.66,-1.44 z" />
          <path
             inkscape:connector-curvature="0"
             id="path10298"
             style="font-style:normal;font-variant:normal;font-weight:500;font-stretch:normal;font-size:20px;font-family:'CMU Sans Serif';-inkscape-font-specification:'CMU Sans Serif Medium';fill:#d90000;fill-opacity:1"
             d="m 630.62227,427.22428 1.56,0 -0.12,5.14 -0.04,2.04 0,0.02 -1.22,0 -0.02,-0.02 -0.16,-7.18 z" />
          <path
             inkscape:connector-curvature="0"
             id="path10300"
             style="font-style:normal;font-variant:normal;font-weight:500;font-stretch:normal;font-size:20px;font-family:'CMU Sans Serif';-inkscape-font-specification:'CMU Sans Serif Medium';fill:#d90000;fill-opacity:1"
             d="m 654.92821,437.20428 q 0,-1.86 1.2,-3.3 1.2,-1.46 3.2,-1.46 0.94,0 1.56,0.18 0.62,0.18 1.54,0.7 l -0.24,1.32 q -0.98,-0.62 -1.5,-0.76 -0.58,-0.16 -1.38,-0.16 -1.36,0 -2.1,1.04 -0.72,1.02 -0.72,2.44 0,1.48 0.78,2.44 0.78,0.96 2.02,0.96 1.56,0 3.14,-1.08 l 0.1,1.34 q -1.58,1.02 -3.26,1.02 -1.84,0 -3.1,-1.36 -1.24,-1.38 -1.24,-3.32 z" />
          <path
             inkscape:connector-curvature="0"
             id="path10302"
             style="font-style:normal;font-variant:normal;font-weight:500;font-stretch:normal;font-size:20px;font-family:'CMU Sans Serif';-inkscape-font-specification:'CMU Sans Serif Medium';fill:#d90000;fill-opacity:1"
             d="m 664.9954,441.66428 0,-13.88 4.92,0 q 2,0 3.44,0.94 1.46,0.96 2.26,2.62 0.8,1.64 0.8,3.48 0,2.78 -1.64,4.66 -1.64,1.88 -3.86,2.14 -0.32,0.04 -0.96,0.04 l -4.96,0 z m 1.74,-1.12 2.86,0 q 2.5,0 3.9,-1.84 1.18,-1.54 1.18,-3.86 0,-2.54 -1.34,-4.24 -1.32,-1.7 -3.74,-1.7 l -2.86,0 0,11.64 z" />
          <path
             inkscape:connector-curvature="0"
             id="path10304"
             style="font-style:normal;font-variant:normal;font-weight:500;font-stretch:normal;font-size:20px;font-family:'CMU Sans Serif';-inkscape-font-specification:'CMU Sans Serif Medium';fill:#d90000;fill-opacity:1"
             d="m 679.44852,441.66428 0,-13.88 2.5,0 5.48,10.88 0.78,1.6 0,-12.48 1.56,0 0,13.88 -2.5,0 -5.48,-10.88 -0.78,-1.6 0,12.48 -1.56,0 z" />
          <path
             inkscape:connector-curvature="0"
             id="path10306"
             style="font-style:normal;font-variant:normal;font-weight:500;font-stretch:normal;font-size:20px;font-family:'CMU Sans Serif';-inkscape-font-specification:'CMU Sans Serif Medium';fill:#d90000;fill-opacity:1"
             d="m 692.26821,441.66428 5.22,-13.88 1.78,0 5.2,13.88 -1.84,0 -1.54,-4.08 -5.8,0 -1.52,4.08 -1.5,0 z m 3.44,-5.2 4.96,0 q -2.36,-6.54 -2.48,-7.28 -0.26,1.22 -2.48,7.28 z" />
        </g>
        <path
           sodipodi:nodetypes="cc"
           style="fill:#0500d9;fill-opacity:1;fill-rule:evenodd;stroke:#0500d9;stroke-width:8;stroke-linecap:butt;stroke-linejoin:miter;stroke-miterlimit:4;stroke-dasharray:none;stroke-opacity:1"
           d="m 61.471372,519.59831 48.571428,0"
           id="path10023"
           inkscape:connector-curvature="0" />
        <text
           sodipodi:linespacing="125%"
           id="text11100"
           y="541.59503"
           x="115.17857"
           style="font-style:normal;font-weight:normal;font-size:15px;line-height:125%;font-family:sans-serif;text-align:start;letter-spacing:0px;word-spacing:0px;writing-mode:lr-tb;text-anchor:start;fill:#d90000;fill-opacity:1;stroke:none;stroke-width:1px;stroke-linecap:butt;stroke-linejoin:miter;stroke-opacity:1"
           xml:space="preserve"><tspan
             style="font-style:normal;font-variant:normal;font-weight:bold;font-stretch:normal;font-size:20px;font-family:'CMU Typewriter Text';-inkscape-font-specification:'CMU Typewriter Text Bold';fill:#d90000;fill-opacity:1"
             y="541.59503"
             x="115.17857"
             id="tspan11102"
             sodipodi:role="line">CCC</tspan></text>
        <text
           xml:space="preserve"
           style="font-style:normal;font-weight:normal;font-size:15px;line-height:125%;font-family:sans-serif;text-align:start;letter-spacing:0px;word-spacing:0px;writing-mode:lr-tb;text-anchor:start;fill:#0500d9;fill-opacity:1;stroke:none;stroke-width:1px;stroke-linecap:butt;stroke-linejoin:miter;stroke-opacity:1"
           x="115.17857"
           y="523.43829"
           id="text11104"
           sodipodi:linespacing="125%"><tspan
             sodipodi:role="line"
             id="tspan11106"
             x="115.17857"
             y="523.43829"
             style="font-style:normal;font-variant:normal;font-weight:bold;font-stretch:normal;font-size:20px;font-family:'CMU Typewriter Text';-inkscape-font-specification:'CMU Typewriter Text Bold';fill:#0500d9;fill-opacity:1">GGG</tspan></text>
      </g>
    </g>
    <g
       id="g11318"
       transform="matrix(0.88450421,0,0,0.88450421,81.99924,26.12144)"
       inkscape:export-filename="/home/will/Documents/thesis/_Figures/png_edited/template-switch-labelled"
       inkscape:export-xdpi="320"
       inkscape:export-ydpi="320">
      <path
         style="fill:none;fill-rule:evenodd;stroke:#d90000;stroke-width:8;stroke-linecap:butt;stroke-linejoin:miter;stroke-miterlimit:4;stroke-dasharray:none;stroke-opacity:1"
         d="m 389.13321,640.29123 -238.01898,0"
         id="path11141"
         inkscape:connector-curvature="0"
         sodipodi:nodetypes="cc" />
      <g
         id="g11157"
         style="font-style:normal;font-weight:normal;font-size:15px;line-height:125%;font-family:sans-serif;text-align:start;letter-spacing:0px;word-spacing:0px;writing-mode:lr-tb;text-anchor:start;fill:#d90000;fill-opacity:1;stroke:none;stroke-width:1px;stroke-linecap:butt;stroke-linejoin:miter;stroke-opacity:1"
         transform="translate(0,211.62696)">
        <path
           inkscape:connector-curvature="0"
           id="path11159"
           style="font-style:normal;font-variant:normal;font-weight:500;font-stretch:normal;font-size:20px;font-family:'CMU Sans Serif';-inkscape-font-specification:'CMU Sans Serif Medium';fill:#d90000;fill-opacity:1"
           d="m 619.40227,440.14428 0.68,-1.12 q 1.12,1.84 3.12,1.84 1,0 1.8,-0.76 0.82,-0.78 0.82,-2.54 0,-1.64 -0.6,-2.42 -0.58,-0.8 -1.44,-0.8 -1.36,0 -2.2,1.6 l -1.36,0 0,-7.38 6.74,0 0,1.28 -5.28,0 0,4.1 q 1.02,-0.82 2.14,-0.82 1.54,0 2.66,1.3 1.14,1.28 1.14,3.16 0,1.92 -1.32,3.22 -1.3,1.3 -3.08,1.3 -1.14,0 -2.16,-0.52 -1.02,-0.54 -1.66,-1.44 z" />
        <path
           inkscape:connector-curvature="0"
           id="path11161"
           style="font-style:normal;font-variant:normal;font-weight:500;font-stretch:normal;font-size:20px;font-family:'CMU Sans Serif';-inkscape-font-specification:'CMU Sans Serif Medium';fill:#d90000;fill-opacity:1"
           d="m 630.62227,427.22428 1.56,0 -0.12,5.14 -0.04,2.04 0,0.02 -1.22,0 -0.02,-0.02 -0.16,-7.18 z" />
        <path
           inkscape:connector-curvature="0"
           id="path11163"
           style="font-style:normal;font-variant:normal;font-weight:500;font-stretch:normal;font-size:20px;font-family:'CMU Sans Serif';-inkscape-font-specification:'CMU Sans Serif Medium';fill:#d90000;fill-opacity:1"
           d="m 654.92821,437.20428 q 0,-1.86 1.2,-3.3 1.2,-1.46 3.2,-1.46 0.94,0 1.56,0.18 0.62,0.18 1.54,0.7 l -0.24,1.32 q -0.98,-0.62 -1.5,-0.76 -0.58,-0.16 -1.38,-0.16 -1.36,0 -2.1,1.04 -0.72,1.02 -0.72,2.44 0,1.48 0.78,2.44 0.78,0.96 2.02,0.96 1.56,0 3.14,-1.08 l 0.1,1.34 q -1.58,1.02 -3.26,1.02 -1.84,0 -3.1,-1.36 -1.24,-1.38 -1.24,-3.32 z" />
        <path
           inkscape:connector-curvature="0"
           id="path11165"
           style="font-style:normal;font-variant:normal;font-weight:500;font-stretch:normal;font-size:20px;font-family:'CMU Sans Serif';-inkscape-font-specification:'CMU Sans Serif Medium';fill:#d90000;fill-opacity:1"
           d="m 664.9954,441.66428 0,-13.88 4.92,0 q 2,0 3.44,0.94 1.46,0.96 2.26,2.62 0.8,1.64 0.8,3.48 0,2.78 -1.64,4.66 -1.64,1.88 -3.86,2.14 -0.32,0.04 -0.96,0.04 l -4.96,0 z m 1.74,-1.12 2.86,0 q 2.5,0 3.9,-1.84 1.18,-1.54 1.18,-3.86 0,-2.54 -1.34,-4.24 -1.32,-1.7 -3.74,-1.7 l -2.86,0 0,11.64 z" />
        <path
           inkscape:connector-curvature="0"
           id="path11167"
           style="font-style:normal;font-variant:normal;font-weight:500;font-stretch:normal;font-size:20px;font-family:'CMU Sans Serif';-inkscape-font-specification:'CMU Sans Serif Medium';fill:#d90000;fill-opacity:1"
           d="m 679.44852,441.66428 0,-13.88 2.5,0 5.48,10.88 0.78,1.6 0,-12.48 1.56,0 0,13.88 -2.5,0 -5.48,-10.88 -0.78,-1.6 0,12.48 -1.56,0 z" />
        <path
           inkscape:connector-curvature="0"
           id="path11169"
           style="font-style:normal;font-variant:normal;font-weight:500;font-stretch:normal;font-size:20px;font-family:'CMU Sans Serif';-inkscape-font-specification:'CMU Sans Serif Medium';fill:#d90000;fill-opacity:1"
           d="m 692.26821,441.66428 5.22,-13.88 1.78,0 5.2,13.88 -1.84,0 -1.54,-4.08 -5.8,0 -1.52,4.08 -1.5,0 z m 3.44,-5.2 4.96,0 q -2.36,-6.54 -2.48,-7.28 -0.26,1.22 -2.48,7.28 z" />
      </g>
      <text
         sodipodi:linespacing="125%"
         id="text11173"
         y="648.6712"
         x="115.17857"
         style="font-style:normal;font-weight:normal;font-size:15px;line-height:125%;font-family:sans-serif;text-align:start;letter-spacing:0px;word-spacing:0px;writing-mode:lr-tb;text-anchor:start;fill:#d90000;fill-opacity:1;stroke:none;stroke-width:1px;stroke-linecap:butt;stroke-linejoin:miter;stroke-opacity:1"
         xml:space="preserve"><tspan
           style="font-style:normal;font-variant:normal;font-weight:bold;font-stretch:normal;font-size:20px;font-family:'CMU Typewriter Text';-inkscape-font-specification:'CMU Typewriter Text Bold';fill:#d90000;fill-opacity:1"
           y="648.6712"
           x="115.17857"
           id="tspan11175"
           sodipodi:role="line">CCC</tspan></text>
      <path
         inkscape:connector-curvature="0"
         id="path11250"
         d="m 61.471372,640.29123 48.571428,0"
         style="fill:#0500d9;fill-opacity:1;fill-rule:evenodd;stroke:#0500d9;stroke-width:8;stroke-linecap:butt;stroke-linejoin:miter;stroke-miterlimit:4;stroke-dasharray:none;stroke-opacity:1"
         sodipodi:nodetypes="cc" />
    </g>
    <path
       style="fill:none;fill-rule:evenodd;stroke:#000000;stroke-width:1.7690084;stroke-linecap:butt;stroke-linejoin:miter;stroke-miterlimit:4;stroke-dasharray:none;stroke-opacity:1;marker-end:url(#marker11363)"
       d="m 418.11084,289.13959 0,30.95765"
       id="path11331"
       inkscape:connector-curvature="0"
       inkscape:export-filename="/home/will/Documents/thesis/_Figures/png_edited/template-switch-labelled"
       inkscape:export-xdpi="320"
       inkscape:export-ydpi="320" />
    <path
       inkscape:connector-curvature="0"
       id="path11433"
       d="m 418.11084,373.69396 0,30.95764"
       style="fill:none;fill-rule:evenodd;stroke:#000000;stroke-width:1.7690084;stroke-linecap:butt;stroke-linejoin:miter;stroke-miterlimit:4;stroke-dasharray:none;stroke-opacity:1;marker-end:url(#marker11435)"
       inkscape:export-filename="/home/will/Documents/thesis/_Figures/png_edited/template-switch-labelled"
       inkscape:export-xdpi="320"
       inkscape:export-ydpi="320" />
    <path
       inkscape:connector-curvature="0"
       id="path11973"
       d="m 418.11084,458.24833 0,30.95765"
       style="fill:none;fill-rule:evenodd;stroke:#000000;stroke-width:1.7690084;stroke-linecap:butt;stroke-linejoin:miter;stroke-miterlimit:4;stroke-dasharray:none;stroke-opacity:1;marker-end:url(#marker11977)"
       inkscape:export-filename="/home/will/Documents/thesis/_Figures/png_edited/template-switch-labelled"
       inkscape:export-xdpi="320"
       inkscape:export-ydpi="320" />
    <path
       style="fill:none;fill-rule:evenodd;stroke:#000000;stroke-width:1.7690084;stroke-linecap:butt;stroke-linejoin:miter;stroke-miterlimit:4;stroke-dasharray:none;stroke-opacity:1;marker-end:url(#marker12323)"
       d="m 418.11084,542.80272 0,30.95765"
       id="path11975"
       inkscape:connector-curvature="0"
       inkscape:export-filename="/home/will/Documents/thesis/_Figures/png_edited/template-switch-labelled"
       inkscape:export-xdpi="320"
       inkscape:export-ydpi="320" />
    <g
       id="g12478"
       transform="matrix(0.84801028,-0.25144835,0.25144835,0.84801028,-52.722568,55.953438)"
       inkscape:export-filename="/home/will/Documents/thesis/_Figures/png_edited/template-switch-labelled"
       inkscape:export-xdpi="320"
       inkscape:export-ydpi="320">
      <text
         sodipodi:linespacing="125%"
         id="text12459"
         y="431.17786"
         x="93.207756"
         style="font-style:normal;font-weight:normal;font-size:15px;line-height:125%;font-family:sans-serif;text-align:start;letter-spacing:0px;word-spacing:0px;writing-mode:lr-tb;text-anchor:start;fill:#0500d9;fill-opacity:1;stroke:none;stroke-width:1px;stroke-linecap:butt;stroke-linejoin:miter;stroke-opacity:1"
         xml:space="preserve"><tspan
           style="font-style:normal;font-variant:normal;font-weight:bold;font-stretch:normal;font-size:20px;font-family:'CMU Typewriter Text';-inkscape-font-specification:'CMU Typewriter Text Bold';fill:#0500d9;fill-opacity:1"
           y="431.17786"
           x="93.207756"
           id="tspan12461"
           sodipodi:role="line">GGG</tspan></text>
      <path
         inkscape:connector-curvature="0"
         id="path12463"
         d="m 39.500554,427.33787 48.571428,0"
         style="fill:#0500d9;fill-opacity:1;fill-rule:evenodd;stroke:#0500d9;stroke-width:8;stroke-linecap:butt;stroke-linejoin:miter;stroke-miterlimit:4;stroke-dasharray:none;stroke-opacity:1"
         sodipodi:nodetypes="cc" />
    </g>
    <path
       style="fill:none;fill-rule:evenodd;stroke:#000000;stroke-width:1.7690084;stroke-linecap:butt;stroke-linejoin:miter;stroke-miterlimit:4;stroke-dasharray:none;stroke-opacity:1;marker-end:url(#marker12491)"
       d="m 144.80802,400.77452 c 0,0 14.1363,-1.11461 21.08688,0.86004 6.95058,1.97466 19.38705,10.91694 19.38705,10.91694"
       id="path12483"
       inkscape:connector-curvature="0"
       sodipodi:nodetypes="czc"
       inkscape:export-filename="/home/will/Documents/thesis/_Figures/png_edited/template-switch-labelled"
       inkscape:export-xdpi="320"
       inkscape:export-ydpi="320" />
    <text
       xml:space="preserve"
       style="font-style:normal;font-weight:normal;font-size:40px;line-height:200%;font-family:sans-serif;text-align:center;letter-spacing:0px;word-spacing:0px;writing-mode:lr-tb;text-anchor:middle;fill:#000000;fill-opacity:1;stroke:none;stroke-width:1px;stroke-linecap:butt;stroke-linejoin:miter;stroke-opacity:1;"
       x="50.352787"
       y="265.17343"
       id="text4327"
       sodipodi:linespacing="200%"
       inkscape:export-filename="/home/will/Documents/thesis/_Figures/png_edited/template-switch-labelled"
       inkscape:export-xdpi="320"
       inkscape:export-ydpi="320"><tspan
         sodipodi:role="line"
         id="tspan4329"
         x="50.352787"
         y="265.17343"
         style="font-style:normal;font-variant:normal;font-weight:500;font-stretch:normal;font-size:35px;font-family:'CMU Sans Serif';-inkscape-font-specification:'CMU Sans Serif Medium';fill:#000000;fill-opacity:1;">A</tspan></text>
    <text
       sodipodi:linespacing="200%"
       id="text4331"
       y="361.42136"
       x="50.352787"
       style="font-style:normal;font-weight:normal;font-size:40px;line-height:200%;font-family:sans-serif;text-align:center;letter-spacing:0px;word-spacing:0px;writing-mode:lr-tb;text-anchor:middle;fill:#000000;fill-opacity:1;stroke:none;stroke-width:1px;stroke-linecap:butt;stroke-linejoin:miter;stroke-opacity:1;"
       xml:space="preserve"
       inkscape:export-filename="/home/will/Documents/thesis/_Figures/png_edited/template-switch-labelled"
       inkscape:export-xdpi="320"
       inkscape:export-ydpi="320"><tspan
         style="font-style:normal;font-variant:normal;font-weight:500;font-stretch:normal;font-size:35px;font-family:'CMU Sans Serif';-inkscape-font-specification:'CMU Sans Serif Medium';fill:#000000;fill-opacity:1;"
         y="361.42136"
         x="50.352787"
         id="tspan4333"
         sodipodi:role="line">B</tspan></text>
    <text
       sodipodi:linespacing="200%"
       id="text4335"
       y="446.55139"
       x="50.352787"
       style="font-style:normal;font-weight:normal;font-size:40px;line-height:200%;font-family:sans-serif;text-align:center;letter-spacing:0px;word-spacing:0px;writing-mode:lr-tb;text-anchor:middle;fill:#000000;fill-opacity:1;stroke:none;stroke-width:1px;stroke-linecap:butt;stroke-linejoin:miter;stroke-opacity:1;"
       xml:space="preserve"
       inkscape:export-filename="/home/will/Documents/thesis/_Figures/png_edited/template-switch-labelled"
       inkscape:export-xdpi="320"
       inkscape:export-ydpi="320"><tspan
         style="font-style:normal;font-variant:normal;font-weight:500;font-stretch:normal;font-size:35px;font-family:'CMU Sans Serif';-inkscape-font-specification:'CMU Sans Serif Medium';fill:#000000;fill-opacity:1;"
         y="446.55139"
         x="50.352787"
         id="tspan4337"
         sodipodi:role="line">C</tspan></text>
    <text
       xml:space="preserve"
       style="font-style:normal;font-weight:normal;font-size:40px;line-height:200%;font-family:sans-serif;text-align:center;letter-spacing:0px;word-spacing:0px;writing-mode:lr-tb;text-anchor:middle;fill:#000000;fill-opacity:1;stroke:none;stroke-width:1px;stroke-linecap:butt;stroke-linejoin:miter;stroke-opacity:1;"
       x="50.352787"
       y="531.6814"
       id="text4339"
       sodipodi:linespacing="200%"
       inkscape:export-filename="/home/will/Documents/thesis/_Figures/png_edited/template-switch-labelled"
       inkscape:export-xdpi="320"
       inkscape:export-ydpi="320"><tspan
         sodipodi:role="line"
         id="tspan4341"
         x="50.352787"
         y="531.6814"
         style="font-style:normal;font-variant:normal;font-weight:500;font-stretch:normal;font-size:35px;font-family:'CMU Sans Serif';-inkscape-font-specification:'CMU Sans Serif Medium';fill:#000000;fill-opacity:1;">D</tspan></text>
    <text
       sodipodi:linespacing="200%"
       id="text4343"
       y="608.72906"
       x="50.352787"
       style="font-style:normal;font-weight:normal;font-size:40px;line-height:200%;font-family:sans-serif;text-align:center;letter-spacing:0px;word-spacing:0px;writing-mode:lr-tb;text-anchor:middle;fill:#000000;fill-opacity:1;stroke:none;stroke-width:1px;stroke-linecap:butt;stroke-linejoin:miter;stroke-opacity:1;"
       xml:space="preserve"
       inkscape:export-filename="/home/will/Documents/thesis/_Figures/png_edited/template-switch-labelled"
       inkscape:export-xdpi="320"
       inkscape:export-ydpi="320"><tspan
         style="font-style:normal;font-variant:normal;font-weight:500;font-stretch:normal;font-size:35px;font-family:'CMU Sans Serif';-inkscape-font-specification:'CMU Sans Serif Medium';fill:#000000;fill-opacity:1;"
         y="608.72906"
         x="50.352787"
         id="tspan4345"
         sodipodi:role="line">E</tspan></text>
  </g>
</svg>
