<?xml version="1.0" encoding="UTF-8" standalone="no"?>
<!-- Created with Inkscape (http://www.inkscape.org/) -->

<svg
   xmlns:dc="http://purl.org/dc/elements/1.1/"
   xmlns:cc="http://creativecommons.org/ns#"
   xmlns:rdf="http://www.w3.org/1999/02/22-rdf-syntax-ns#"
   xmlns:svg="http://www.w3.org/2000/svg"
   xmlns="http://www.w3.org/2000/svg"
   xmlns:sodipodi="http://sodipodi.sourceforge.net/DTD/sodipodi-0.dtd"
   xmlns:inkscape="http://www.inkscape.org/namespaces/inkscape"
   width="102.94986mm"
   height="79.349869mm"
   viewBox="0 0 364.78297 281.16095"
   id="svg25972"
   version="1.1"
   inkscape:version="0.91 r13725"
   sodipodi:docname="adaptive-immunity-simple.svg">
  <defs
     id="defs25974">
    <marker
       inkscape:isstock="true"
       style="overflow:visible"
       id="marker27197"
       refX="0"
       refY="0"
       orient="auto"
       inkscape:stockid="Arrow1Mend">
      <path
         transform="matrix(-0.4,0,0,-0.4,-4,0)"
         style="fill:#000000;fill-opacity:1;fill-rule:evenodd;stroke:#000000;stroke-width:1pt;stroke-opacity:1"
         d="M 0,0 5,-5 -12.5,0 5,5 0,0 Z"
         id="path27199"
         inkscape:connector-curvature="0" />
    </marker>
    <marker
       inkscape:stockid="Arrow1Mend"
       orient="auto"
       refY="0"
       refX="0"
       id="Arrow1Mend"
       style="overflow:visible"
       inkscape:isstock="true"
       inkscape:collect="always">
      <path
         id="path26786"
         d="M 0,0 5,-5 -12.5,0 5,5 0,0 Z"
         style="fill:#000000;fill-opacity:1;fill-rule:evenodd;stroke:#000000;stroke-width:1pt;stroke-opacity:1"
         transform="matrix(-0.4,0,0,-0.4,-4,0)"
         inkscape:connector-curvature="0" />
    </marker>
  </defs>
  <sodipodi:namedview
     id="base"
     pagecolor="#ffffff"
     bordercolor="#666666"
     borderopacity="1.0"
     inkscape:pageopacity="0.0"
     inkscape:pageshadow="2"
     inkscape:zoom="1.979899"
     inkscape:cx="32.5482"
     inkscape:cy="62.21402"
     inkscape:document-units="px"
     inkscape:current-layer="layer1"
     showgrid="false"
     inkscape:window-width="2560"
     inkscape:window-height="1545"
     inkscape:window-x="0"
     inkscape:window-y="31"
     inkscape:window-maximized="1"
     fit-margin-top="1"
     fit-margin-left="1"
     fit-margin-right="1"
     fit-margin-bottom="1" />
  <metadata
     id="metadata25977">
    <rdf:RDF>
      <cc:Work
         rdf:about="">
        <dc:format>image/svg+xml</dc:format>
        <dc:type
           rdf:resource="http://purl.org/dc/dcmitype/StillImage" />
        <dc:title></dc:title>
      </cc:Work>
    </rdf:RDF>
  </metadata>
  <g
     inkscape:label="Layer 1"
     inkscape:groupmode="layer"
     id="layer1"
     transform="translate(-44.7262,-462.20192)">
    <g
       id="g26745"
       transform="translate(-8.3519899,0)">
      <g
         transform="matrix(-0.58721487,-0.56625299,0.56625299,-0.58721487,135.78609,1639.8012)"
         id="g17031">
        <g
           id="g16988"
           transform="matrix(-1.4635286,-0.6077259,0.6077259,-1.4635286,637.98883,1824.1692)">
          <path
             inkscape:connector-curvature="0"
             id="path16990"
             d="m -497.81055,-308.34766 c -0.60286,0.0736 -1.20573,0.14714 -1.80859,0.22071 -0.5918,0.13281 -1.18359,0.26562 -1.77539,0.39843 -0.57617,0.19141 -1.15235,0.38282 -1.72852,0.57422 -0.55403,0.24805 -1.10807,0.4961 -1.66211,0.74414 -0.52669,0.30144 -1.05338,0.60287 -1.58007,0.9043 -0.49349,0.35352 -0.98698,0.70703 -1.48047,1.06055 -0.45573,0.40039 -0.91146,0.80078 -1.36719,1.20117 -0.41341,0.44401 -0.82682,0.88802 -1.24023,1.33203 -0.36784,0.48307 -0.73568,0.96615 -1.10352,1.44922 -0.31706,0.51758 -0.63412,1.03516 -0.95117,1.55273 -0.26367,0.54623 -0.52735,1.09245 -0.79102,1.63868 -0.20833,0.57031 -0.41666,1.14062 -0.625,1.71093 -0.15039,0.58789 -0.30078,1.17578 -0.45117,1.76367 -0.0905,0.60027 -0.18099,1.20053 -0.27148,1.80079 -0.0306,0.60612 -0.0612,1.21224 -0.0918,1.81836 0.0156,0.42903 0.0312,0.85807 0.0469,1.28711 0.0729,0.60286 0.14584,1.20572 0.21875,1.80859 0.13282,0.5918 0.26563,1.18359 0.39844,1.77539 0.19141,0.57617 0.38281,1.15234 0.57422,1.72852 0.24805,0.55403 0.49609,1.10807 0.74414,1.6621 0.30208,0.52605 0.60417,1.05209 0.90625,1.57813 0.35287,0.49414 0.70573,0.98828 1.05859,1.48242 0.40039,0.45573 0.80079,0.91146 1.20118,1.36719 0.44401,0.41341 0.88802,0.82682 1.33203,1.24023 0.48372,0.36784 0.96745,0.73568 1.45117,1.10352 0.51693,0.31706 1.03385,0.63411 1.55078,0.95117 0.54688,0.26367 1.09375,0.52734 1.64063,0.79102 0.56966,0.20833 1.13932,0.41666 1.70898,0.625 0.58789,0.15039 1.17578,0.30078 1.76367,0.45117 0.60026,0.0905 1.20052,0.18099 1.80078,0.27148 0.60612,0.0299 1.21224,0.0599 1.81836,0.0899 0.42969,-0.015 0.85938,-0.03 1.28906,-0.0449 0.60222,-0.0729 1.20443,-0.14583 1.80665,-0.21875 0.59244,-0.13281 1.18489,-0.26562 1.77734,-0.39843 0.57552,-0.19141 1.15104,-0.38282 1.72656,-0.57422 0.55404,-0.24805 1.10807,-0.4961 1.66211,-0.74414 0.52669,-0.30209 1.05339,-0.60417 1.58008,-0.90625 0.49349,-0.35287 0.98698,-0.70573 1.48047,-1.0586 0.45573,-0.40039 0.91146,-0.80078 1.36719,-1.20117 0.41406,-0.44401 0.82812,-0.88802 1.24218,-1.33203 0.36263,-0.48372 0.72526,-0.96745 1.08789,-1.45117 0.1836,-0.49544 0.36719,-0.99089 0.55079,-1.48633 -0.11133,-0.48177 -0.22266,-0.96354 -0.33399,-1.44531 -0.30109,-0.49772 -0.6028,-0.99506 -0.9035,-1.49301 -0.303,-0.50754 -0.606,-1.01508 -0.909,-1.52262 -0.22526,-0.56315 -0.45052,-1.1263 -0.67578,-1.68945 -0.0697,-1.0013 -0.13932,-2.0026 -0.20899,-3.00391 0.17383,-0.65169 0.34766,-1.30338 0.52149,-1.95507 0.34896,-0.6875 0.69792,-1.375 1.04687,-2.0625 0.39063,-0.64779 0.78125,-1.29558 1.17188,-1.94336 0.19271,-0.62631 0.38542,-1.25261 0.57812,-1.87891 -0.17838,-0.54818 -0.35677,-1.09635 -0.53515,-1.64453 -0.35156,-0.49349 -0.70313,-0.98698 -1.05469,-1.48047 -0.40039,-0.45638 -0.80078,-0.91276 -1.20117,-1.36914 -0.44401,-0.41341 -0.88802,-0.82682 -1.33203,-1.24024 -0.48308,-0.36718 -0.96615,-0.73437 -1.44922,-1.10156 -0.51758,-0.31705 -1.03516,-0.63411 -1.55274,-0.95117 -0.54622,-0.26432 -1.09244,-0.52865 -1.63867,-0.79297 -0.57031,-0.20768 -1.14062,-0.41536 -1.71093,-0.62304 -0.5879,-0.1504 -1.17579,-0.30079 -1.76368,-0.45118 -0.60026,-0.0905 -1.20052,-0.18099 -1.80078,-0.27148 -0.60612,-0.0306 -1.21224,-0.0612 -1.81836,-0.0918 -0.42903,0.015 -0.85807,0.0299 -1.28711,0.0449 z"
             style="opacity:1;fill:#ffbfbf;fill-opacity:1;fill-rule:evenodd;stroke:#e58888;stroke-width:1;stroke-miterlimit:4;stroke-dasharray:none;stroke-dashoffset:0;stroke-opacity:1"
             transform="matrix(-0.60042024,-0.79968465,0.79968465,-0.60042024,0,0)" />
          <ellipse
             ry="9.3059587"
             rx="10.664493"
             cy="575.06512"
             cx="64.745605"
             id="ellipse16992"
             style="opacity:1;fill:#ffa5a5;fill-opacity:1;fill-rule:evenodd;stroke:#ff9a9a;stroke-width:1.07590413;stroke-miterlimit:4;stroke-dasharray:none;stroke-dashoffset:0;stroke-opacity:1" />
        </g>
        <g
           id="g16994"
           style="font-style:normal;font-weight:normal;font-size:30.92933655px;line-height:125%;font-family:sans-serif;text-align:start;letter-spacing:0px;word-spacing:0px;writing-mode:lr-tb;text-anchor:start;fill:#e58888;fill-opacity:1;stroke:none;stroke-width:1px;stroke-linecap:butt;stroke-linejoin:miter;stroke-opacity:1"
           transform="matrix(-0.87309351,0.4875528,-0.4875528,-0.87309351,1284.1106,2111.0382)">
          <path
             inkscape:connector-curvature="0"
             id="path16996"
             d="m -175.63469,1141.6376 2.10894,2.5082 -3.08044,10.7526 11.09275,-1.2111 2.10839,2.509 -14.17241,1.4876 -8.223,6.9051 -1.97415,-2.3454 8.2223,-6.9056 3.91947,-13.7005 z" />
        </g>
        <g
           id="g16998"
           style="font-style:normal;font-weight:normal;font-size:30.92933655px;line-height:125%;font-family:sans-serif;text-align:start;letter-spacing:0px;word-spacing:0px;writing-mode:lr-tb;text-anchor:start;fill:#e58888;fill-opacity:1;stroke:none;stroke-width:1px;stroke-linecap:butt;stroke-linejoin:miter;stroke-opacity:1"
           transform="matrix(-0.87309351,0.4875528,-0.4875528,-0.87309351,1292.5193,2061.8046)">
          <path
             inkscape:transform-center-y="14.142141"
             inkscape:transform-center-x="-4.0406102"
             inkscape:connector-curvature="0"
             id="path17000"
             d="m -184.78006,1106.6286 3.21305,0.6439 4.31035,10.3197 7.90642,-7.8731 3.21263,0.6438 -10.13731,10.0145 -2.10777,10.53 -3.00553,-0.602 2.10771,-10.5287 -5.49937,-13.146 z" />
        </g>
        <g
           id="g17002"
           style="font-style:normal;font-weight:normal;font-size:30.92933655px;line-height:125%;font-family:sans-serif;text-align:start;letter-spacing:0px;word-spacing:0px;writing-mode:lr-tb;text-anchor:start;fill:#e58888;fill-opacity:1;stroke:none;stroke-width:1px;stroke-linecap:butt;stroke-linejoin:miter;stroke-opacity:1"
           transform="matrix(-0.12269674,0.99244421,-0.99244421,-0.12269674,1992.1885,1326.0555)">
          <path
             inkscape:connector-curvature="0"
             id="path17004"
             d="m -151.07328,1112.1737 0.41735,3.2521 -8.40875,7.3744 9.9832,4.9833 0.40367,3.2526 -12.72224,-6.4168 -10.65181,1.3577 -0.38977,-3.0409 10.65087,-1.3588 10.70759,-9.4019 z" />
        </g>
        <g
           id="g17006"
           style="font-style:normal;font-weight:normal;font-size:30.92933655px;line-height:125%;font-family:sans-serif;text-align:start;letter-spacing:0px;word-spacing:0px;writing-mode:lr-tb;text-anchor:start;fill:#e58888;fill-opacity:1;stroke:none;stroke-width:1px;stroke-linecap:butt;stroke-linejoin:miter;stroke-opacity:1"
           transform="matrix(-0.87309351,0.4875528,-0.4875528,-0.87309351,1320.3934,2073.1009)">
          <path
             inkscape:connector-curvature="0"
             id="path17008"
             d="m -144.2573,1146.2763 1.26474,3.0228 -6.15845,9.3356 10.94767,2.1612 1.26634,3.0235 -13.96788,-2.8233 -9.91257,4.1308 -1.1853,-2.829 9.91285,-4.1282 7.83579,-11.9019 z" />
        </g>
        <g
           id="g17010"
           style="font-style:normal;font-weight:normal;font-size:30.92933655px;line-height:125%;font-family:sans-serif;text-align:start;letter-spacing:0px;word-spacing:0px;writing-mode:lr-tb;text-anchor:start;fill:#e58888;fill-opacity:1;stroke:none;stroke-width:1px;stroke-linecap:butt;stroke-linejoin:miter;stroke-opacity:1"
           transform="matrix(-0.87309351,0.4875528,-0.4875528,-0.87309351,1288.4683,2035.4785)">
          <path
             inkscape:connector-curvature="0"
             id="path17012"
             d="m -210.74759,1096.9874 2.21223,-2.4153 11.06404,1.6248 -2.67097,-10.8347 2.21243,-2.4167 3.35466,13.8486 7.93886,7.2317 -2.0708,2.2612 -7.93703,-7.2319 -14.09813,-2.063 z" />
        </g>
        <g
           transform="matrix(-0.87309351,0.4875528,-0.4875528,-0.87309351,1304.1826,2060.4785)"
           style="font-style:normal;font-weight:normal;font-size:30.92933655px;line-height:125%;font-family:sans-serif;text-align:start;letter-spacing:0px;word-spacing:0px;writing-mode:lr-tb;text-anchor:start;fill:#e58888;fill-opacity:1;stroke:none;stroke-width:1px;stroke-linecap:butt;stroke-linejoin:miter;stroke-opacity:1"
           id="g17027">
          <path
             d="m -210.74759,1096.9874 2.21223,-2.4153 11.06404,1.6248 -2.67097,-10.8347 2.21243,-2.4167 3.35466,13.8486 7.93886,7.2317 -2.0708,2.2612 -7.93703,-7.2319 -14.09813,-2.063 z"
             id="path17029"
             inkscape:connector-curvature="0" />
        </g>
      </g>
      <g
         transform="matrix(-0.05330872,-0.81401593,0.81401593,-0.05330872,-285.80292,1000.1629)"
         id="g17113">
        <g
           id="g17115"
           transform="matrix(1.5846914,0,0,1.5846914,405.40049,-414.43624)">
          <circle
             r="18.214285"
             cy="571.29077"
             cx="66.071426"
             id="circle17117"
             style="opacity:1;fill:#ffbfbf;fill-opacity:1;fill-rule:evenodd;stroke:#e58888;stroke-width:1;stroke-miterlimit:4;stroke-dasharray:none;stroke-dashoffset:0;stroke-opacity:1" />
          <ellipse
             ry="9.3059587"
             rx="10.664493"
             cy="575.06512"
             cx="64.745605"
             id="ellipse17119"
             style="opacity:1;fill:#ffa5a5;fill-opacity:1;fill-rule:evenodd;stroke:#ff9a9a;stroke-width:1.07590413;stroke-miterlimit:4;stroke-dasharray:none;stroke-dashoffset:0;stroke-opacity:1" />
        </g>
        <text
           xml:space="preserve"
           style="font-style:normal;font-weight:normal;font-size:30.92933655px;line-height:125%;font-family:sans-serif;text-align:start;letter-spacing:0px;word-spacing:0px;writing-mode:lr-tb;text-anchor:start;fill:#e58888;fill-opacity:1;stroke:none;stroke-width:1px;stroke-linecap:butt;stroke-linejoin:miter;stroke-opacity:1"
           x="670.91583"
           y="-224.03377"
           id="text17121"
           sodipodi:linespacing="125%"
           transform="matrix(0.50160625,0.86509605,-0.86509605,0.50160625,0,0)"><tspan
             sodipodi:role="line"
             id="tspan17123"
             x="670.91583"
             y="-224.03377">Y</tspan></text>
        <text
           transform="matrix(0.50160625,0.86509605,-0.86509605,0.50160625,0,0)"
           sodipodi:linespacing="125%"
           id="text17125"
           y="-224.03377"
           x="670.91583"
           style="font-style:normal;font-weight:normal;font-size:30.92933655px;line-height:125%;font-family:sans-serif;text-align:start;letter-spacing:0px;word-spacing:0px;writing-mode:lr-tb;text-anchor:start;fill:#e58888;fill-opacity:1;stroke:none;stroke-width:1px;stroke-linecap:butt;stroke-linejoin:miter;stroke-opacity:1"
           xml:space="preserve"><tspan
             y="-224.03377"
             x="670.91583"
             id="tspan17127"
             sodipodi:role="line">Y</tspan></text>
      </g>
    </g>
    <text
       xml:space="preserve"
       style="font-style:normal;font-weight:normal;font-size:15px;line-height:200%;font-family:sans-serif;text-align:center;letter-spacing:0px;word-spacing:0px;writing-mode:lr-tb;text-anchor:middle;fill:#000000;fill-opacity:1;stroke:none;stroke-width:1px;stroke-linecap:butt;stroke-linejoin:miter;stroke-opacity:1"
       x="228.02808"
       y="736.23206"
       id="text26572"
       sodipodi:linespacing="200%"><tspan
         sodipodi:role="line"
         id="tspan26574"
         x="228.02808"
         y="736.23206"
         style="font-style:normal;font-variant:normal;font-weight:500;font-stretch:normal;font-size:17.5px;font-family:'CMU Sans Serif';-inkscape-font-specification:'CMU Sans Serif Medium'">Adaptive immune system</tspan></text>
    <text
       xml:space="preserve"
       style="font-style:normal;font-weight:normal;font-size:15px;line-height:200%;font-family:sans-serif;text-align:center;letter-spacing:0px;word-spacing:0px;writing-mode:lr-tb;text-anchor:middle;fill:#000000;fill-opacity:1;stroke:none;stroke-width:1px;stroke-linecap:butt;stroke-linejoin:miter;stroke-opacity:1"
       x="123.28665"
       y="649.81641"
       id="text26576"
       sodipodi:linespacing="200%"><tspan
         sodipodi:role="line"
         id="tspan26578"
         x="123.28665"
         y="649.81641"
         style="font-style:normal;font-variant:normal;font-weight:bold;font-stretch:normal;font-family:'CMU Sans Serif';-inkscape-font-specification:'CMU Sans Serif Bold'">B-cells</tspan></text>
    <g
       id="g26716">
      <g
         transform="translate(6.8185297,8.3337585)"
         id="g26658">
        <g
           id="g26652"
           transform="matrix(0.9460951,-0.32388896,0.32388896,0.9460951,-165.86895,117.61642)">
          <path
             sodipodi:nodetypes="cc"
             inkscape:connector-curvature="0"
             id="path26642"
             d="m 270.35927,537.93245 0,6.43787"
             style="fill:none;fill-rule:evenodd;stroke:#8e88e5;stroke-width:2.37140965;stroke-linecap:butt;stroke-linejoin:miter;stroke-miterlimit:4;stroke-dasharray:none;stroke-opacity:1" />
          <path
             style="fill:none;fill-rule:evenodd;stroke:#8e88e5;stroke-width:2.37140965;stroke-linecap:butt;stroke-linejoin:miter;stroke-miterlimit:4;stroke-dasharray:none;stroke-opacity:1"
             d="m 273.55323,529.54825 0,14.82207"
             id="path26644"
             inkscape:connector-curvature="0" />
          <path
             style="fill:none;fill-rule:evenodd;stroke:#8e88e5;stroke-width:2.37140965;stroke-linecap:butt;stroke-linejoin:miter;stroke-miterlimit:4;stroke-dasharray:none;stroke-opacity:1"
             d="m 276.7472,529.54825 0,14.82207"
             id="path26646"
             inkscape:connector-curvature="0" />
          <path
             style="fill:none;fill-rule:evenodd;stroke:#8e88e5;stroke-width:2.37140965;stroke-linecap:butt;stroke-linejoin:miter;stroke-miterlimit:4;stroke-dasharray:none;stroke-opacity:1"
             d="m 279.94116,537.93245 0,6.43787"
             id="path26650"
             inkscape:connector-curvature="0"
             sodipodi:nodetypes="cc" />
        </g>
        <g
           id="g17103"
           transform="matrix(-0.18141423,-0.79533178,0.79533178,-0.18141423,-203.4229,807.37861)">
          <path
             style="opacity:1;fill:#c2bfff;fill-opacity:1;fill-rule:evenodd;stroke:#8e88e5;stroke-width:1.58469141;stroke-miterlimit:4;stroke-dasharray:none;stroke-dashoffset:0;stroke-opacity:1"
             d="m 187.3061,640.80432 a 28.864021,28.864021 0 0 1 -28.86402,28.86403 28.864021,28.864021 0 0 1 -28.86402,-28.86403 28.864021,28.864021 0 0 1 28.86402,-28.86401 28.864021,28.864021 0 0 1 28.86402,28.86401 z"
             id="path17105"
             inkscape:connector-curvature="0" />
          <path
             style="opacity:1;fill:#ada5ff;fill-opacity:1;fill-rule:evenodd;stroke:#a19aff;stroke-width:1.70497608;stroke-miterlimit:4;stroke-dasharray:none;stroke-dashoffset:0;stroke-opacity:1"
             d="m 173.24099,646.7855 a 16.89993,14.747073 0 0 1 -16.89993,14.74707 16.89993,14.747073 0 0 1 -16.89992,-14.74707 16.89993,14.747073 0 0 1 16.89992,-14.74706 16.89993,14.747073 0 0 1 16.89993,14.74706 z"
             id="path17107"
             inkscape:connector-curvature="0" />
        </g>
      </g>
      <g
         transform="matrix(0.92042917,0.39090936,-0.39090936,0.92042917,300.20659,-81.386727)"
         id="g26668">
        <g
           transform="matrix(0.9460951,-0.32388896,0.32388896,0.9460951,-165.86895,117.61642)"
           id="g26670">
          <path
             style="fill:none;fill-rule:evenodd;stroke:#8e88e5;stroke-width:2.37140965;stroke-linecap:butt;stroke-linejoin:miter;stroke-miterlimit:4;stroke-dasharray:none;stroke-opacity:1"
             d="m 270.35927,537.93245 0,6.43787"
             id="path26672"
             inkscape:connector-curvature="0"
             sodipodi:nodetypes="cc" />
          <path
             inkscape:connector-curvature="0"
             id="path26674"
             d="m 273.55323,529.54825 0,14.82207"
             style="fill:none;fill-rule:evenodd;stroke:#8e88e5;stroke-width:2.37140965;stroke-linecap:butt;stroke-linejoin:miter;stroke-miterlimit:4;stroke-dasharray:none;stroke-opacity:1" />
          <path
             inkscape:connector-curvature="0"
             id="path26676"
             d="m 276.7472,529.54825 0,14.82207"
             style="fill:none;fill-rule:evenodd;stroke:#8e88e5;stroke-width:2.37140965;stroke-linecap:butt;stroke-linejoin:miter;stroke-miterlimit:4;stroke-dasharray:none;stroke-opacity:1" />
          <path
             sodipodi:nodetypes="cc"
             inkscape:connector-curvature="0"
             id="path26678"
             d="m 279.94116,537.93245 0,6.43787"
             style="fill:none;fill-rule:evenodd;stroke:#8e88e5;stroke-width:2.37140965;stroke-linecap:butt;stroke-linejoin:miter;stroke-miterlimit:4;stroke-dasharray:none;stroke-opacity:1" />
        </g>
        <g
           transform="matrix(-0.18141423,-0.79533178,0.79533178,-0.18141423,-203.4229,807.37861)"
           id="g26680">
          <path
             inkscape:connector-curvature="0"
             id="path26682"
             d="m 187.3061,640.80432 a 28.864021,28.864021 0 0 1 -28.86402,28.86403 28.864021,28.864021 0 0 1 -28.86402,-28.86403 28.864021,28.864021 0 0 1 28.86402,-28.86401 28.864021,28.864021 0 0 1 28.86402,28.86401 z"
             style="opacity:1;fill:#c2bfff;fill-opacity:1;fill-rule:evenodd;stroke:#8e88e5;stroke-width:1.58469141;stroke-miterlimit:4;stroke-dasharray:none;stroke-dashoffset:0;stroke-opacity:1" />
          <path
             inkscape:connector-curvature="0"
             id="path26684"
             d="m 173.24099,646.7855 a 16.89993,14.747073 0 0 1 -16.89993,14.74707 16.89993,14.747073 0 0 1 -16.89992,-14.74707 16.89993,14.747073 0 0 1 16.89992,-14.74706 16.89993,14.747073 0 0 1 16.89993,14.74706 z"
             style="opacity:1;fill:#ada5ff;fill-opacity:1;fill-rule:evenodd;stroke:#a19aff;stroke-width:1.70497608;stroke-miterlimit:4;stroke-dasharray:none;stroke-dashoffset:0;stroke-opacity:1" />
        </g>
      </g>
      <g
         id="g26686"
         transform="matrix(0.42734668,0.90408783,-0.90408783,0.42734668,769.08275,93.080042)">
        <g
           id="g26688"
           transform="matrix(0.9460951,-0.32388896,0.32388896,0.9460951,-165.86895,117.61642)">
          <path
             sodipodi:nodetypes="cc"
             inkscape:connector-curvature="0"
             id="path26690"
             d="m 270.35927,537.93245 0,6.43787"
             style="fill:none;fill-rule:evenodd;stroke:#8e88e5;stroke-width:2.37140965;stroke-linecap:butt;stroke-linejoin:miter;stroke-miterlimit:4;stroke-dasharray:none;stroke-opacity:1" />
          <path
             style="fill:none;fill-rule:evenodd;stroke:#8e88e5;stroke-width:2.37140965;stroke-linecap:butt;stroke-linejoin:miter;stroke-miterlimit:4;stroke-dasharray:none;stroke-opacity:1"
             d="m 273.55323,529.54825 0,14.82207"
             id="path26692"
             inkscape:connector-curvature="0" />
          <path
             style="fill:none;fill-rule:evenodd;stroke:#8e88e5;stroke-width:2.37140965;stroke-linecap:butt;stroke-linejoin:miter;stroke-miterlimit:4;stroke-dasharray:none;stroke-opacity:1"
             d="m 276.7472,529.54825 0,14.82207"
             id="path26694"
             inkscape:connector-curvature="0" />
          <path
             style="fill:none;fill-rule:evenodd;stroke:#8e88e5;stroke-width:2.37140965;stroke-linecap:butt;stroke-linejoin:miter;stroke-miterlimit:4;stroke-dasharray:none;stroke-opacity:1"
             d="m 279.94116,537.93245 0,6.43787"
             id="path26696"
             inkscape:connector-curvature="0"
             sodipodi:nodetypes="cc" />
        </g>
        <g
           id="g26698"
           transform="matrix(-0.18141423,-0.79533178,0.79533178,-0.18141423,-203.4229,807.37861)">
          <path
             style="opacity:1;fill:#c2bfff;fill-opacity:1;fill-rule:evenodd;stroke:#8e88e5;stroke-width:1.58469141;stroke-miterlimit:4;stroke-dasharray:none;stroke-dashoffset:0;stroke-opacity:1"
             d="m 187.3061,640.80432 a 28.864021,28.864021 0 0 1 -28.86402,28.86403 28.864021,28.864021 0 0 1 -28.86402,-28.86403 28.864021,28.864021 0 0 1 28.86402,-28.86401 28.864021,28.864021 0 0 1 28.86402,28.86401 z"
             id="path26700"
             inkscape:connector-curvature="0" />
          <path
             style="opacity:1;fill:#ada5ff;fill-opacity:1;fill-rule:evenodd;stroke:#a19aff;stroke-width:1.70497608;stroke-miterlimit:4;stroke-dasharray:none;stroke-dashoffset:0;stroke-opacity:1"
             d="m 173.24099,646.7855 a 16.89993,14.747073 0 0 1 -16.89993,14.74707 16.89993,14.747073 0 0 1 -16.89992,-14.74707 16.89993,14.747073 0 0 1 16.89992,-14.74706 16.89993,14.747073 0 0 1 16.89993,14.74706 z"
             id="path26702"
             inkscape:connector-curvature="0" />
        </g>
      </g>
    </g>
    <text
       xml:space="preserve"
       style="font-style:normal;font-weight:normal;font-size:15px;line-height:200%;font-family:sans-serif;text-align:center;letter-spacing:0px;word-spacing:0px;writing-mode:lr-tb;text-anchor:middle;fill:#000000;fill-opacity:1;stroke:none;stroke-width:1px;stroke-linecap:butt;stroke-linejoin:miter;stroke-opacity:1"
       x="332.93808"
       y="649.81641"
       id="text26704"
       sodipodi:linespacing="200%"><tspan
         sodipodi:role="line"
         id="tspan26706"
         x="332.93808"
         y="649.81641"
         style="font-style:normal;font-variant:normal;font-weight:bold;font-stretch:normal;font-family:'CMU Sans Serif';-inkscape-font-specification:'CMU Sans Serif Bold'">T-cells</tspan></text>
    <text
       xml:space="preserve"
       style="font-style:normal;font-weight:normal;font-size:15px;line-height:200%;font-family:sans-serif;text-align:center;letter-spacing:0px;word-spacing:0px;writing-mode:lr-tb;text-anchor:middle;fill:#000000;fill-opacity:1;stroke:none;stroke-width:1px;stroke-linecap:butt;stroke-linejoin:miter;stroke-opacity:1"
       x="123.74368"
       y="477.95523"
       id="text26708"
       sodipodi:linespacing="200%"><tspan
         sodipodi:role="line"
         id="tspan26710"
         x="123.74368"
         y="477.95523"
         style="font-style:normal;font-variant:normal;font-weight:500;font-stretch:normal;font-family:'CMU Sans Serif';-inkscape-font-specification:'CMU Sans Serif Medium'">Antibodies</tspan></text>
    <text
       xml:space="preserve"
       style="font-style:normal;font-weight:normal;font-size:15px;line-height:200%;font-family:sans-serif;text-align:center;letter-spacing:0px;word-spacing:0px;writing-mode:lr-tb;text-anchor:middle;fill:#000000;fill-opacity:1;stroke:none;stroke-width:1px;stroke-linecap:butt;stroke-linejoin:miter;stroke-opacity:1"
       x="332.9451"
       y="476.57523"
       id="text26712"
       sodipodi:linespacing="200%"><tspan
         sodipodi:role="line"
         id="tspan26714"
         x="332.9451"
         y="476.57523"
         style="font-style:normal;font-variant:normal;font-weight:500;font-stretch:normal;font-family:'CMU Sans Serif';-inkscape-font-specification:'CMU Sans Serif Medium'">T-cell receptors</tspan></text>
    <g
       id="g27711">
      <path
         inkscape:connector-curvature="0"
         id="path26771"
         d="m 173.75966,711.43154 c -0.50507,-2.02031 -41.66879,-41.6688 -41.66879,-41.6688"
         style="fill:none;fill-rule:evenodd;stroke:#000000;stroke-width:2;stroke-linecap:butt;stroke-linejoin:miter;stroke-miterlimit:4;stroke-dasharray:none;stroke-opacity:1;marker-end:url(#Arrow1Mend)" />
      <path
         style="fill:none;fill-rule:evenodd;stroke:#000000;stroke-width:2;stroke-linecap:butt;stroke-linejoin:miter;stroke-miterlimit:4;stroke-dasharray:none;stroke-opacity:1;marker-end:url(#marker27197)"
         d="m 281.35287,711.43154 c 0.50507,-2.02031 41.66879,-41.6688 41.66879,-41.6688"
         id="path27195"
         inkscape:connector-curvature="0" />
    </g>
  </g>
</svg>
