<?xml version="1.0" encoding="UTF-8" standalone="no"?>
<svg
   xmlns:dc="http://purl.org/dc/elements/1.1/"
   xmlns:cc="http://creativecommons.org/ns#"
   xmlns:rdf="http://www.w3.org/1999/02/22-rdf-syntax-ns#"
   xmlns:svg="http://www.w3.org/2000/svg"
   xmlns="http://www.w3.org/2000/svg"
   xmlns:sodipodi="http://sodipodi.sourceforge.net/DTD/sodipodi-0.dtd"
   xmlns:inkscape="http://www.inkscape.org/namespaces/inkscape"
   viewBox="0 0 637.80 425.20"
   id="svg2"
   version="1.1"
   inkscape:version="0.91 r13725"
   sodipodi:docname="ageing-clone-diversity-alpha.svg">
  <metadata
     id="metadata176">
    <rdf:RDF>
      <cc:Work
         rdf:about="">
        <dc:format>image/svg+xml</dc:format>
        <dc:type
           rdf:resource="http://purl.org/dc/dcmitype/StillImage" />
      </cc:Work>
    </rdf:RDF>
  </metadata>
  <sodipodi:namedview
     pagecolor="#ffffff"
     bordercolor="#666666"
     borderopacity="1"
     objecttolerance="10"
     gridtolerance="10"
     guidetolerance="10"
     inkscape:pageopacity="0"
     inkscape:pageshadow="2"
     inkscape:window-width="2560"
     inkscape:window-height="1545"
     id="namedview174"
     showgrid="false"
     inkscape:zoom="1.5698701"
     inkscape:cx="83.65904"
     inkscape:cy="164.65484"
     inkscape:window-x="0"
     inkscape:window-y="31"
     inkscape:window-maximized="1"
     inkscape:current-layer="svg2" />
  <defs
     id="defs4">
    <style
       type="text/css"
       id="style6"><![CDATA[
    line, polyline, path, rect, circle {
      fill: none;
      stroke: #000000;
      stroke-linecap: round;
      stroke-linejoin: round;
      stroke-miterlimit: 10.00;
    }
  ]]></style>
  </defs>
  <defs
     id="defs12">
    <clipPath
       id="cpODAuMzM5MXw2MjMuNjIyfDMyNS43ODR8NDIuNTE5Nw==">
      <rect
         x="80.34"
         y="42.52"
         width="543.28"
         height="283.26"
         id="rect15" />
    </clipPath>
  </defs>
  <polyline
     points="105.03,59.52 111.21,61.14 117.38,62.84 123.55,64.61 129.73,66.45 135.90,68.37 142.08,70.38 148.25,72.48 154.42,74.68 160.60,76.99 166.77,79.41 172.94,81.95 179.12,84.62 185.29,87.43 191.47,90.38 197.64,93.50 203.81,96.79 209.99,100.27 216.16,103.93 222.33,107.81 228.51,111.89 234.68,116.22 240.85,120.77 247.03,125.58 253.20,130.63 259.38,135.94 265.55,141.51 271.72,147.32 277.90,153.37 284.07,159.63 290.24,166.08 296.42,172.70 302.59,179.43 308.76,186.23 314.94,193.06 321.11,199.86 327.29,206.57 333.46,213.14 339.63,219.51 345.81,225.66 351.98,231.53 358.15,237.10 364.33,242.34 370.50,247.26 376.68,251.84 382.85,256.09 389.02,260.01 395.20,263.63 401.37,266.95 407.54,270.00 413.72,272.79 419.89,275.34 426.06,277.68 432.24,279.82 438.41,281.78 444.59,283.58 450.76,285.23 456.93,286.74 463.11,288.14 469.28,289.42 475.45,290.60 481.63,291.70 487.80,292.71 493.97,293.65 500.15,294.52 506.32,295.33 512.50,296.08 518.67,296.78 524.84,297.44 531.02,298.06 537.19,298.63 543.36,299.17 549.54,299.68 555.71,300.16 561.89,300.61 568.06,301.03 574.23,301.44 580.41,301.82 586.58,302.17 592.75,302.52 598.93,302.84 "
     style="stroke-width: 1.07; stroke: #1B9E77; stroke-linecap: butt;"
     clip-path="url(#cpODAuMzM5MXw2MjMuNjIyfDMyNS43ODR8NDIuNTE5Nw==)"
     id="polyline19" />
  <polyline
     points="105.03,57.58 111.21,59.31 117.38,61.13 123.55,63.03 129.73,65.04 135.90,67.14 142.08,69.35 148.25,71.69 154.42,74.15 160.60,76.75 166.77,79.50 172.94,82.40 179.12,85.48 185.29,88.75 191.47,92.21 197.64,95.88 203.81,99.78 209.99,103.92 216.16,108.30 222.33,112.95 228.51,117.86 234.68,123.07 240.85,128.56 247.03,134.32 253.20,140.36 259.38,146.67 265.55,153.23 271.72,160.00 277.90,166.96 284.07,174.06 290.24,181.25 296.42,188.48 302.59,195.68 308.76,202.79 314.94,209.76 321.11,216.53 327.29,223.04 333.46,229.26 339.63,235.15 345.81,240.69 351.98,245.87 358.15,250.68 364.33,255.13 370.50,259.22 376.68,262.99 382.85,266.43 389.02,269.58 395.20,272.45 401.37,275.08 407.54,277.47 413.72,279.65 419.89,281.65 426.06,283.47 432.24,285.13 438.41,286.66 444.59,288.06 450.76,289.35 456.93,290.54 463.11,291.63 469.28,292.64 475.45,293.58 481.63,294.44 487.80,295.25 493.97,296.00 500.15,296.70 506.32,297.35 512.50,297.96 518.67,298.53 524.84,299.07 531.02,299.57 537.19,300.04 543.36,300.49 549.54,300.91 555.71,301.31 561.89,301.69 568.06,302.05 574.23,302.38 580.41,302.71 586.58,303.01 592.75,303.30 598.93,303.58 "
     style="stroke-width: 1.07; stroke: #D95F02; stroke-linecap: butt;"
     clip-path="url(#cpODAuMzM5MXw2MjMuNjIyfDMyNS43ODR8NDIuNTE5Nw==)"
     id="polyline21" />
  <polyline
     points="105.03,62.01 111.21,64.03 117.38,66.17 123.55,68.42 129.73,70.80 135.90,73.32 142.08,76.00 148.25,78.84 154.42,81.87 160.60,85.10 166.77,88.55 172.94,92.23 179.12,96.17 185.29,100.39 191.47,104.91 197.64,109.76 203.81,114.95 209.99,120.50 216.16,126.44 222.33,132.78 228.51,139.51 234.68,146.68 240.85,154.22 247.03,162.14 253.20,170.39 259.38,178.91 265.55,187.64 271.72,196.48 277.90,205.33 284.07,214.08 290.24,222.62 296.42,230.85 302.59,238.66 308.76,246.00 314.94,252.80 321.11,259.03 327.29,264.69 333.46,269.78 339.63,274.33 345.81,278.38 351.98,281.97 358.15,285.14 364.33,287.94 370.50,290.41 376.68,292.59 382.85,294.51 389.02,296.22 395.20,297.73 401.37,299.07 407.54,300.27 413.72,301.35 419.89,302.31 426.06,303.18 432.24,303.96 438.41,304.67 444.59,305.32 450.76,305.91 456.93,306.44 463.11,306.93 469.28,307.38 475.45,307.80 481.63,308.18 487.80,308.54 493.97,308.86 500.15,309.17 506.32,309.45 512.50,309.72 518.67,309.96 524.84,310.20 531.02,310.41 537.19,310.62 543.36,310.81 549.54,310.99 555.71,311.16 561.89,311.32 568.06,311.47 574.23,311.61 580.41,311.75 586.58,311.88 592.75,312.00 598.93,312.12 "
     style="stroke-width: 1.07; stroke: #7570B3; stroke-linecap: butt;"
     clip-path="url(#cpODAuMzM5MXw2MjMuNjIyfDMyNS43ODR8NDIuNTE5Nw==)"
     id="polyline23" />
  <polyline
     points="105.03,68.72 111.21,70.61 117.38,72.58 123.55,74.66 129.73,76.84 135.90,79.14 142.08,81.57 148.25,84.14 154.42,86.85 160.60,89.74 166.77,92.80 172.94,96.06 179.12,99.54 185.29,103.25 191.47,107.22 197.64,111.46 203.81,116.00 209.99,120.86 216.16,126.05 222.33,131.60 228.51,137.51 234.68,143.81 240.85,150.48 247.03,157.50 253.20,164.87 259.38,172.53 265.55,180.45 271.72,188.55 277.90,196.75 284.07,204.96 290.24,213.08 296.42,221.02 302.59,228.69 308.76,235.99 314.94,242.88 321.11,249.29 327.29,255.21 333.46,260.61 339.63,265.52 345.81,269.94 351.98,273.91 358.15,277.45 364.33,280.61 370.50,283.42 376.68,285.93 382.85,288.15 389.02,290.13 395.20,291.90 401.37,293.48 407.54,294.90 413.72,296.17 419.89,297.31 426.06,298.34 432.24,299.27 438.41,300.11 444.59,300.88 450.76,301.58 456.93,302.22 463.11,302.81 469.28,303.35 475.45,303.84 481.63,304.30 487.80,304.73 493.97,305.12 500.15,305.48 506.32,305.83 512.50,306.14 518.67,306.44 524.84,306.72 531.02,306.98 537.19,307.22 543.36,307.45 549.54,307.67 555.71,307.88 561.89,308.07 568.06,308.25 574.23,308.43 580.41,308.59 586.58,308.75 592.75,308.90 598.93,309.04 "
     style="stroke-width: 1.07; stroke: #E7298A; stroke-linecap: butt;"
     clip-path="url(#cpODAuMzM5MXw2MjMuNjIyfDMyNS43ODR8NDIuNTE5Nw==)"
     id="polyline25" />
  <polyline
     points="105.03,57.48 111.21,59.07 117.38,60.72 123.55,62.44 129.73,64.24 135.90,66.11 142.08,68.07 148.25,70.12 154.42,72.26 160.60,74.51 166.77,76.86 172.94,79.33 179.12,81.92 185.29,84.65 191.47,87.52 197.64,90.55 203.81,93.73 209.99,97.09 216.16,100.63 222.33,104.36 228.51,108.29 234.68,112.45 240.85,116.82 247.03,121.42 253.20,126.25 259.38,131.32 265.55,136.63 271.72,142.16 277.90,147.92 284.07,153.88 290.24,160.03 296.42,166.35 302.59,172.79 308.76,179.33 314.94,185.92 321.11,192.51 327.29,199.06 333.46,205.52 339.63,211.84 345.81,217.97 351.98,223.88 358.15,229.54 364.33,234.92 370.50,239.99 376.68,244.77 382.85,249.23 389.02,253.38 395.20,257.23 401.37,260.80 407.54,264.08 413.72,267.11 419.89,269.90 426.06,272.46 432.24,274.82 438.41,276.98 444.59,278.98 450.76,280.81 456.93,282.50 463.11,284.05 469.28,285.49 475.45,286.82 481.63,288.04 487.80,289.18 493.97,290.24 500.15,291.22 506.32,292.13 512.50,292.99 518.67,293.78 524.84,294.53 531.02,295.22 537.19,295.87 543.36,296.49 549.54,297.06 555.71,297.60 561.89,298.12 568.06,298.60 574.23,299.05 580.41,299.49 586.58,299.89 592.75,300.28 598.93,300.65 598.93,305.03 592.75,304.75 586.58,304.46 580.41,304.15 574.23,303.82 568.06,303.47 561.89,303.10 555.71,302.71 549.54,302.30 543.36,301.86 537.19,301.39 531.02,300.89 524.84,300.36 518.67,299.79 512.50,299.17 506.32,298.52 500.15,297.81 493.97,297.05 487.80,296.23 481.63,295.35 475.45,294.39 469.28,293.35 463.11,292.22 456.93,290.99 450.76,289.65 444.59,288.18 438.41,286.58 432.24,284.83 426.06,282.90 419.89,280.79 413.72,278.46 407.54,275.91 401.37,273.10 395.20,270.02 389.02,266.64 382.85,262.95 376.68,258.91 370.50,254.52 364.33,249.77 358.15,244.65 351.98,239.17 345.81,233.34 339.63,227.19 333.46,220.75 327.29,214.07 321.11,207.20 314.94,200.20 308.76,193.14 302.59,186.07 296.42,179.05 290.24,172.13 284.07,165.38 277.90,158.81 271.72,152.48 265.55,146.39 259.38,140.57 253.20,135.01 247.03,129.73 240.85,124.73 234.68,119.98 228.51,115.49 222.33,111.25 216.16,107.24 209.99,103.44 203.81,99.86 197.64,96.46 191.47,93.25 185.29,90.20 179.12,87.31 172.94,84.56 166.77,81.95 160.60,79.47 154.42,77.10 148.25,74.84 142.08,72.69 135.90,70.63 129.73,68.66 123.55,66.77 117.38,64.96 111.21,63.22 105.03,61.55 "
     style="stroke-width: 1.07; stroke: none; fill: #1B9E77; fill-opacity: 0.40;"
     clip-path="url(#cpODAuMzM5MXw2MjMuNjIyfDMyNS43ODR8NDIuNTE5Nw==)"
     id="polyline27" />
  <polyline
     points="105.03,55.40 111.21,57.08 117.38,58.84 123.55,60.70 129.73,62.64 135.90,64.68 142.08,66.83 148.25,69.09 154.42,71.48 160.60,74.00 166.77,76.66 172.94,79.47 179.12,82.45 185.29,85.61 191.47,88.95 197.64,92.49 203.81,96.25 209.99,100.23 216.16,104.45 222.33,108.92 228.51,113.64 234.68,118.65 240.85,123.91 247.03,129.45 253.20,135.25 259.38,141.31 265.55,147.62 271.72,154.15 277.90,160.87 284.07,167.74 290.24,174.74 296.42,181.79 302.59,188.85 308.76,195.87 314.94,202.79 321.11,209.54 327.29,216.09 333.46,222.39 339.63,228.39 345.81,234.08 351.98,239.43 358.15,244.44 364.33,249.10 370.50,253.42 376.68,257.41 382.85,261.07 389.02,264.44 395.20,267.53 401.37,270.36 407.54,272.95 413.72,275.32 419.89,277.49 426.06,279.48 432.24,281.31 438.41,282.98 444.59,284.52 450.76,285.93 456.93,287.24 463.11,288.44 469.28,289.56 475.45,290.59 481.63,291.54 487.80,292.43 493.97,293.26 500.15,294.03 506.32,294.75 512.50,295.43 518.67,296.06 524.84,296.65 531.02,297.21 537.19,297.73 543.36,298.22 549.54,298.69 555.71,299.13 561.89,299.55 568.06,299.94 574.23,300.32 580.41,300.67 586.58,301.01 592.75,301.33 598.93,301.64 598.93,305.53 592.75,305.28 586.58,305.02 580.41,304.74 574.23,304.45 568.06,304.15 561.89,303.83 555.71,303.49 549.54,303.14 543.36,302.76 537.19,302.36 531.02,301.93 524.84,301.48 518.67,301.00 512.50,300.49 506.32,299.94 500.15,299.36 493.97,298.73 487.80,298.06 481.63,297.34 475.45,296.56 469.28,295.72 463.11,294.82 456.93,293.84 450.76,292.77 444.59,291.61 438.41,290.34 432.24,288.96 426.06,287.45 419.89,285.80 413.72,283.98 407.54,281.99 401.37,279.79 395.20,277.38 389.02,274.72 382.85,271.79 376.68,268.57 370.50,265.03 364.33,261.15 358.15,256.91 351.98,252.30 345.81,247.30 339.63,241.91 333.46,236.13 327.29,229.99 321.11,223.51 314.94,216.74 308.76,209.72 302.59,202.50 296.42,195.16 290.24,187.77 284.07,180.38 277.90,173.05 271.72,165.86 265.55,158.84 259.38,152.03 253.20,145.48 247.03,139.20 240.85,133.20 234.68,127.50 228.51,122.08 222.33,116.98 216.16,112.15 209.99,107.60 203.81,103.31 197.64,99.28 191.47,95.47 185.29,91.89 179.12,88.52 172.94,85.34 166.77,82.33 160.60,79.50 154.42,76.82 148.25,74.28 142.08,71.88 135.90,69.60 129.73,67.43 123.55,65.37 117.38,63.41 111.21,61.54 105.03,59.76 "
     style="stroke-width: 1.07; stroke: none; fill: #D95F02; fill-opacity: 0.40;"
     clip-path="url(#cpODAuMzM5MXw2MjMuNjIyfDMyNS43ODR8NDIuNTE5Nw==)"
     id="polyline29" />
  <polyline
     points="105.03,59.87 111.21,61.84 117.38,63.92 123.55,66.11 129.73,68.44 135.90,70.90 142.08,73.51 148.25,76.29 154.42,79.24 160.60,82.39 166.77,85.75 172.94,89.33 179.12,93.17 185.29,97.28 191.47,101.68 197.64,106.39 203.81,111.43 209.99,116.83 216.16,122.60 222.33,128.76 228.51,135.30 234.68,142.26 240.85,149.60 247.03,157.31 253.20,165.36 259.38,173.69 265.55,182.25 271.72,190.94 277.90,199.69 284.07,208.39 290.24,216.92 296.42,225.20 302.59,233.11 308.76,240.59 314.94,247.58 321.11,254.03 327.29,259.92 333.46,265.27 339.63,270.08 345.81,274.38 351.98,278.22 358.15,281.63 364.33,284.65 370.50,287.32 376.68,289.69 382.85,291.79 389.02,293.66 395.20,295.32 401.37,296.80 407.54,298.12 413.72,299.30 419.89,300.37 426.06,301.33 432.24,302.20 438.41,302.99 444.59,303.70 450.76,304.36 456.93,304.95 463.11,305.50 469.28,306.00 475.45,306.47 481.63,306.90 487.80,307.29 493.97,307.66 500.15,308.00 506.32,308.32 512.50,308.62 518.67,308.89 524.84,309.15 531.02,309.40 537.19,309.63 543.36,309.84 549.54,310.05 555.71,310.24 561.89,310.42 568.06,310.59 574.23,310.75 580.41,310.91 586.58,311.05 592.75,311.19 598.93,311.32 598.93,312.91 592.75,312.81 586.58,312.70 580.41,312.59 574.23,312.47 568.06,312.35 561.89,312.22 555.71,312.08 549.54,311.93 543.36,311.77 537.19,311.60 531.02,311.43 524.84,311.24 518.67,311.03 512.50,310.82 506.32,310.59 500.15,310.34 493.97,310.07 487.80,309.78 481.63,309.47 475.45,309.13 469.28,308.76 463.11,308.36 456.93,307.93 450.76,307.45 444.59,306.93 438.41,306.36 432.24,305.73 426.06,305.03 419.89,304.26 413.72,303.39 407.54,302.43 401.37,301.35 395.20,300.14 389.02,298.77 382.85,297.23 376.68,295.48 370.50,293.49 364.33,291.23 358.15,288.66 351.98,285.72 345.81,282.38 339.63,278.59 333.46,274.29 327.29,269.45 321.11,264.03 314.94,258.02 308.76,251.41 302.59,244.22 296.42,236.50 290.24,228.32 284.07,219.77 277.90,210.96 271.72,202.01 265.55,193.03 259.38,184.14 253.20,175.42 247.03,166.97 240.85,158.85 234.68,151.09 228.51,143.73 222.33,136.80 216.16,130.28 209.99,124.17 203.81,118.46 197.64,113.13 191.47,108.15 185.29,103.51 179.12,99.17 172.94,95.13 166.77,91.35 160.60,87.82 154.42,84.51 148.25,81.40 142.08,78.49 135.90,75.74 129.73,73.16 123.55,70.72 117.38,68.41 111.21,66.23 105.03,64.16 "
     style="stroke-width: 1.07; stroke: none; fill: #7570B3; fill-opacity: 0.40;"
     clip-path="url(#cpODAuMzM5MXw2MjMuNjIyfDMyNS43ODR8NDIuNTE5Nw==)"
     id="polyline31" />
  <polyline
     points="105.03,63.94 111.21,65.73 117.38,67.60 123.55,69.57 129.73,71.64 135.90,73.82 142.08,76.11 148.25,78.54 154.42,81.10 160.60,83.82 166.77,86.70 172.94,89.76 179.12,93.02 185.29,96.49 191.47,100.18 197.64,104.13 203.81,108.34 209.99,112.83 216.16,117.63 222.33,122.74 228.51,128.18 234.68,133.98 240.85,140.11 247.03,146.59 253.20,153.41 259.38,160.54 265.55,167.96 271.72,175.63 277.90,183.47 284.07,191.43 290.24,199.42 296.42,207.36 302.59,215.16 308.76,222.73 314.94,229.99 321.11,236.88 327.29,243.34 333.46,249.35 339.63,254.88 345.81,259.94 351.98,264.54 358.15,268.70 364.33,272.44 370.50,275.80 376.68,278.82 382.85,281.51 389.02,283.93 395.20,286.10 401.37,288.04 407.54,289.78 413.72,291.35 419.89,292.76 426.06,294.04 432.24,295.20 438.41,296.25 444.59,297.20 450.76,298.07 456.93,298.87 463.11,299.60 469.28,300.27 475.45,300.89 481.63,301.46 487.80,301.99 493.97,302.48 500.15,302.93 506.32,303.35 512.50,303.75 518.67,304.11 524.84,304.46 531.02,304.78 537.19,305.08 543.36,305.37 549.54,305.64 555.71,305.89 561.89,306.13 568.06,306.36 574.23,306.57 580.41,306.77 586.58,306.97 592.75,307.15 598.93,307.32 598.93,310.76 592.75,310.65 586.58,310.53 580.41,310.41 574.23,310.28 568.06,310.15 561.89,310.01 555.71,309.86 549.54,309.70 543.36,309.54 537.19,309.36 531.02,309.17 524.84,308.98 518.67,308.76 512.50,308.54 506.32,308.30 500.15,308.04 493.97,307.76 487.80,307.46 481.63,307.14 475.45,306.80 469.28,306.42 463.11,306.01 456.93,305.57 450.76,305.09 444.59,304.56 438.41,303.98 432.24,303.34 426.06,302.63 419.89,301.85 413.72,300.98 407.54,300.01 401.37,298.93 395.20,297.71 389.02,296.34 382.85,294.79 376.68,293.04 370.50,291.04 364.33,288.78 358.15,286.20 351.98,283.27 345.81,279.94 339.63,276.15 333.46,271.88 327.29,267.07 321.11,261.71 314.94,255.77 308.76,249.26 302.59,242.21 296.42,234.68 290.24,226.74 284.07,218.49 277.90,210.02 271.72,201.47 265.55,192.93 259.38,184.52 253.20,176.32 247.03,168.41 240.85,160.84 234.68,153.65 228.51,146.84 222.33,140.46 216.16,134.48 209.99,128.88 203.81,123.66 197.64,118.79 191.47,114.25 185.29,110.02 179.12,106.06 172.94,102.36 166.77,98.90 160.60,95.66 154.42,92.60 148.25,89.73 142.08,87.03 135.90,84.47 129.73,82.04 123.55,79.74 117.38,77.56 111.21,75.48 105.03,73.50 "
     style="stroke-width: 1.07; stroke: none; fill: #E7298A; fill-opacity: 0.40;"
     clip-path="url(#cpODAuMzM5MXw2MjMuNjIyfDMyNS43ODR8NDIuNTE5Nw==)"
     id="polyline33" />
  <defs
     id="defs35">
    <clipPath
       id="cpMHw2MzcuNzk1fDQyNS4xOTd8MA==">
      <rect
         x="0.00"
         y="0.00"
         width="637.80"
         height="425.20"
         id="rect38" />
    </clipPath>
  </defs>
  <polyline
     points="80.34,325.78 80.34,42.52 "
     style="stroke-width: 1.07; stroke-linecap: butt;"
     clip-path="url(#cpMHw2MzcuNzk1fDQyNS4xOTd8MA==)"
     id="polyline40" />
  <g
     clip-path="url(#cpMHw2MzcuNzk1fDQyNS4xOTd8MA==)"
     id="g42">
    <text
       x="67.77"
       y="321.99"
       style="font-size: 12.00px; font-family: CM Sans;"
       textLength="7.63px"
       lengthAdjust="spacingAndGlyphs"
       id="text44">0</text>
  </g>
  <g
     clip-path="url(#cpMHw2MzcuNzk1fDQyNS4xOTd8MA==)"
     id="g46">
    <text
       x="52.50"
       y="254.00"
       style="font-size: 12.00px; font-family: CM Sans;"
       textLength="22.90px"
       lengthAdjust="spacingAndGlyphs"
       id="text48">300</text>
  </g>
  <g
     clip-path="url(#cpMHw2MzcuNzk1fDQyNS4xOTd8MA==)"
     id="g50">
    <text
       x="52.50"
       y="186.01"
       style="font-size: 12.00px; font-family: CM Sans;"
       textLength="22.90px"
       lengthAdjust="spacingAndGlyphs"
       id="text52">600</text>
  </g>
  <g
     clip-path="url(#cpMHw2MzcuNzk1fDQyNS4xOTd8MA==)"
     id="g54">
    <text
       x="52.50"
       y="118.02"
       style="font-size: 12.00px; font-family: CM Sans;"
       textLength="22.90px"
       lengthAdjust="spacingAndGlyphs"
       id="text56">900</text>
  </g>
  <g
     clip-path="url(#cpMHw2MzcuNzk1fDQyNS4xOTd8MA==)"
     id="g58">
    <text
       x="44.87"
       y="50.04"
       style="font-size: 12.00px; font-family: CM Sans;"
       textLength="30.54px"
       lengthAdjust="spacingAndGlyphs"
       id="text60">1200</text>
  </g>
  <polyline
     points="77.60,317.61 80.34,317.61 "
     style="stroke-width: 1.07; stroke: #333333; stroke-linecap: butt;"
     clip-path="url(#cpMHw2MzcuNzk1fDQyNS4xOTd8MA==)"
     id="polyline62" />
  <polyline
     points="77.60,249.63 80.34,249.63 "
     style="stroke-width: 1.07; stroke: #333333; stroke-linecap: butt;"
     clip-path="url(#cpMHw2MzcuNzk1fDQyNS4xOTd8MA==)"
     id="polyline64" />
  <polyline
     points="77.60,181.64 80.34,181.64 "
     style="stroke-width: 1.07; stroke: #333333; stroke-linecap: butt;"
     clip-path="url(#cpMHw2MzcuNzk1fDQyNS4xOTd8MA==)"
     id="polyline66" />
  <polyline
     points="77.60,113.65 80.34,113.65 "
     style="stroke-width: 1.07; stroke: #333333; stroke-linecap: butt;"
     clip-path="url(#cpMHw2MzcuNzk1fDQyNS4xOTd8MA==)"
     id="polyline68" />
  <polyline
     points="77.60,45.66 80.34,45.66 "
     style="stroke-width: 1.07; stroke: #333333; stroke-linecap: butt;"
     clip-path="url(#cpMHw2MzcuNzk1fDQyNS4xOTd8MA==)"
     id="polyline70" />
  <polyline
     points="80.34,325.78 623.62,325.78 "
     style="stroke-width: 1.07; stroke-linecap: butt;"
     clip-path="url(#cpMHw2MzcuNzk1fDQyNS4xOTd8MA==)"
     id="polyline72" />
  <polyline
     points="105.03,328.52 105.03,325.78 "
     style="stroke-width: 1.07; stroke: #333333; stroke-linecap: butt;"
     clip-path="url(#cpMHw2MzcuNzk1fDQyNS4xOTd8MA==)"
     id="polyline74" />
  <polyline
     points="228.51,328.52 228.51,325.78 "
     style="stroke-width: 1.07; stroke: #333333; stroke-linecap: butt;"
     clip-path="url(#cpMHw2MzcuNzk1fDQyNS4xOTd8MA==)"
     id="polyline76" />
  <polyline
     points="351.98,328.52 351.98,325.78 "
     style="stroke-width: 1.07; stroke: #333333; stroke-linecap: butt;"
     clip-path="url(#cpMHw2MzcuNzk1fDQyNS4xOTd8MA==)"
     id="polyline78" />
  <polyline
     points="475.45,328.52 475.45,325.78 "
     style="stroke-width: 1.07; stroke: #333333; stroke-linecap: butt;"
     clip-path="url(#cpMHw2MzcuNzk1fDQyNS4xOTd8MA==)"
     id="polyline80" />
  <polyline
     points="598.93,328.52 598.93,325.78 "
     style="stroke-width: 1.07; stroke: #333333; stroke-linecap: butt;"
     clip-path="url(#cpMHw2MzcuNzk1fDQyNS4xOTd8MA==)"
     id="polyline82" />
  <g
     clip-path="url(#cpMHw2MzcuNzk1fDQyNS4xOTd8MA==)"
     id="g84">
    <text
       x="101.22"
       y="339.47"
       style="font-size: 12.00px; font-family: CM Sans;"
       textLength="7.63px"
       lengthAdjust="spacingAndGlyphs"
       id="text86">0</text>
  </g>
  <g
     clip-path="url(#cpMHw2MzcuNzk1fDQyNS4xOTd8MA==)"
     id="g88">
    <text
       x="224.69"
       y="339.47"
       style="font-size: 12.00px; font-family: CM Sans;"
       textLength="7.63px"
       lengthAdjust="spacingAndGlyphs"
       id="text90">1</text>
  </g>
  <g
     clip-path="url(#cpMHw2MzcuNzk1fDQyNS4xOTd8MA==)"
     id="g92">
    <text
       x="348.16"
       y="339.47"
       style="font-size: 12.00px; font-family: CM Sans;"
       textLength="7.63px"
       lengthAdjust="spacingAndGlyphs"
       id="text94">2</text>
  </g>
  <g
     clip-path="url(#cpMHw2MzcuNzk1fDQyNS4xOTd8MA==)"
     id="g96">
    <text
       x="471.64"
       y="339.47"
       style="font-size: 12.00px; font-family: CM Sans;"
       textLength="7.63px"
       lengthAdjust="spacingAndGlyphs"
       id="text98">3</text>
  </g>
  <g
     clip-path="url(#cpMHw2MzcuNzk1fDQyNS4xOTd8MA==)"
     id="g100">
    <text
       x="595.11"
       y="339.47"
       style="font-size: 12.00px; font-family: CM Sans;"
       textLength="7.63px"
       lengthAdjust="spacingAndGlyphs"
       id="text102">4</text>
  </g>
  <g
     clip-path="url(#cpMHw2MzcuNzk1fDQyNS4xOTd8MA==)"
     id="g104">
    <text
       x="269.33"
       y="369.29"
       style="font-size: 18.00px; font-family: CM Sans;"
       textLength="165.30px"
       lengthAdjust="spacingAndGlyphs"
       id="text106">Diversity order (q)</text>
  </g>
  <g
     clip-path="url(#cpMHw2MzcuNzk1fDQyNS4xOTd8MA==)"
     id="g112">
    <text
       transform="translate(29.47,136.94) rotate(-90)"
       style="font-size: 18.00px; font-family: Standard Symbols L;"
       textLength="4.50px"
       lengthAdjust="spacingAndGlyphs"
       id="text114" />
  </g>
  <g
     id="g4304"
     transform="translate(0,-32.654649)">
    <g
       transform="translate(0,65.062541)"
       id="g108"
       clip-path="url(#cpMHw2MzcuNzk1fDQyNS4xOTd8MA==)">
      <text
         id="text110"
         lengthAdjust="spacingAndGlyphs"
         textLength="135.32px"
         style="font-size:18px;font-family:'CM Sans'"
         transform="matrix(0,-1,1,0,29.47,272.25)">Clonal alpha-diversity</text>
    </g>
    <g
       id="g116"
       clip-path="url(#cpMHw2MzcuNzk1fDQyNS4xOTd8MA==)">
      <text
         id="text118"
         lengthAdjust="spacingAndGlyphs"
         textLength="7.49px"
         style="font-size:22.5px;font-family:'Standard Symbols L'"
         transform="matrix(0,-1,1,0,29.47,132.44)">(</text>
    </g>
    <g
       id="g120"
       clip-path="url(#cpMHw2MzcuNzk1fDQyNS4xOTd8MA==)">
      <text
         id="text122"
         lengthAdjust="spacingAndGlyphs"
         textLength="5.71px"
         style="font-size:9px;font-family:'CM Sans'"
         transform="matrix(0,-1,1,0,31.96,124.94)">q</text>
    </g>
    <g
       id="g124"
       clip-path="url(#cpMHw2MzcuNzk1fDQyNS4xOTd8MA==)">
      <text
         id="text126"
         lengthAdjust="spacingAndGlyphs"
         textLength="10.01px"
         style="font-size:12.60000038px;font-family:'CM Sans'"
         transform="matrix(0,-1,1,0,29.47,119.23)">D</text>
    </g>
    <g
       id="g128"
       clip-path="url(#cpMHw2MzcuNzk1fDQyNS4xOTd8MA==)">
      <text
         id="text130"
         lengthAdjust="spacingAndGlyphs"
         textLength="5.68px"
         style="font-size:9px;font-family:'Standard Symbols L'"
         transform="matrix(0,-1,1,0,23.6,109.22)">α</text>
    </g>
    <g
       id="g132"
       clip-path="url(#cpMHw2MzcuNzk1fDQyNS4xOTd8MA==)">
      <text
         id="text134"
         lengthAdjust="spacingAndGlyphs"
         textLength="7.49px"
         style="font-size:22.5px;font-family:'Standard Symbols L'"
         transform="matrix(0,-1,1,0,29.47,103.54)">)</text>
    </g>
  </g>
  <rect
     x="190.98"
     y="382.78"
     width="321.99"
     height="28.24"
     style="stroke-width: 1.07; stroke: none; fill: #FFFFFF;"
     clip-path="url(#cpMHw2MzcuNzk1fDQyNS4xOTd8MA==)"
     id="rect136" />
  <g
     clip-path="url(#cpMHw2MzcuNzk1fDQyNS4xOTd8MA==)"
     id="g138">
    <text
       x="196.46"
       y="401.28"
       style="font-size: 12.00px; font-weight: bold; font-family: CM Sans;"
       textLength="116.88px"
       lengthAdjust="spacingAndGlyphs"
       id="text140">Age group (days)</text>
  </g>
  <line
     x1="329.55"
     y1="396.90"
     x2="343.37"
     y2="396.90"
     style="stroke-width: 1.07; stroke: #1B9E77; stroke-linecap: butt;"
     clip-path="url(#cpMHw2MzcuNzk1fDQyNS4xOTd8MA==)"
     id="line142" />
  <rect
     x="328.53"
     y="388.97"
     width="15.86"
     height="15.86"
     style="stroke-width: 1.07; stroke: none; stroke-linejoin: miter; fill: #1B9E77; fill-opacity: 0.40;"
     clip-path="url(#cpMHw2MzcuNzk1fDQyNS4xOTd8MA==)"
     id="rect144" />
  <line
     x1="374.05"
     y1="396.90"
     x2="387.88"
     y2="396.90"
     style="stroke-width: 1.07; stroke: #D95F02; stroke-linecap: butt;"
     clip-path="url(#cpMHw2MzcuNzk1fDQyNS4xOTd8MA==)"
     id="line146" />
  <rect
     x="373.04"
     y="388.97"
     width="15.86"
     height="15.86"
     style="stroke-width: 1.07; stroke: none; stroke-linejoin: miter; fill: #D95F02; fill-opacity: 0.40;"
     clip-path="url(#cpMHw2MzcuNzk1fDQyNS4xOTd8MA==)"
     id="rect148" />
  <line
     x1="418.56"
     y1="396.90"
     x2="432.38"
     y2="396.90"
     style="stroke-width: 1.07; stroke: #7570B3; stroke-linecap: butt;"
     clip-path="url(#cpMHw2MzcuNzk1fDQyNS4xOTd8MA==)"
     id="line150" />
  <rect
     x="417.54"
     y="388.97"
     width="15.86"
     height="15.86"
     style="stroke-width: 1.07; stroke: none; stroke-linejoin: miter; fill: #7570B3; fill-opacity: 0.40;"
     clip-path="url(#cpMHw2MzcuNzk1fDQyNS4xOTd8MA==)"
     id="rect152" />
  <line
     x1="463.06"
     y1="396.90"
     x2="476.89"
     y2="396.90"
     style="stroke-width: 1.07; stroke: #E7298A; stroke-linecap: butt;"
     clip-path="url(#cpMHw2MzcuNzk1fDQyNS4xOTd8MA==)"
     id="line154" />
  <rect
     x="462.04"
     y="388.97"
     width="15.86"
     height="15.86"
     style="stroke-width: 1.07; stroke: none; stroke-linejoin: miter; fill: #E7298A; fill-opacity: 0.40;"
     clip-path="url(#cpMHw2MzcuNzk1fDQyNS4xOTd8MA==)"
     id="rect156" />
  <g
     clip-path="url(#cpMHw2MzcuNzk1fDQyNS4xOTd8MA==)"
     id="g158">
    <text
       x="351.08"
       y="401.28"
       style="font-size: 12.00px; font-family: CM Sans;"
       textLength="15.27px"
       lengthAdjust="spacingAndGlyphs"
       id="text160">39</text>
  </g>
  <g
     clip-path="url(#cpMHw2MzcuNzk1fDQyNS4xOTd8MA==)"
     id="g162">
    <text
       x="395.58"
       y="401.28"
       style="font-size: 12.00px; font-family: CM Sans;"
       textLength="15.27px"
       lengthAdjust="spacingAndGlyphs"
       id="text164">56</text>
  </g>
  <g
     clip-path="url(#cpMHw2MzcuNzk1fDQyNS4xOTd8MA==)"
     id="g166">
    <text
       x="440.09"
       y="401.28"
       style="font-size: 12.00px; font-family: CM Sans;"
       textLength="15.27px"
       lengthAdjust="spacingAndGlyphs"
       id="text168">73</text>
  </g>
  <g
     clip-path="url(#cpMHw2MzcuNzk1fDQyNS4xOTd8MA==)"
     id="g170">
    <text
       x="484.59"
       y="401.28"
       style="font-size: 12.00px; font-family: CM Sans;"
       textLength="22.90px"
       lengthAdjust="spacingAndGlyphs"
       id="text172">128</text>
  </g>
</svg>
