<?xml version="1.0" encoding="UTF-8" standalone="no"?>
<!-- Created with Inkscape (http://www.inkscape.org/) -->

<svg
   xmlns:dc="http://purl.org/dc/elements/1.1/"
   xmlns:cc="http://creativecommons.org/ns#"
   xmlns:rdf="http://www.w3.org/1999/02/22-rdf-syntax-ns#"
   xmlns:svg="http://www.w3.org/2000/svg"
   xmlns="http://www.w3.org/2000/svg"
   xmlns:sodipodi="http://sodipodi.sourceforge.net/DTD/sodipodi-0.dtd"
   xmlns:inkscape="http://www.inkscape.org/namespaces/inkscape"
   width="111.30065mm"
   height="71.526367mm"
   viewBox="0 0 394.37239 253.43989"
   id="svg5508"
   version="1.1"
   inkscape:version="0.91 r13725"
   sodipodi:docname="vj-diversity-cell4.svg">
  <defs
     id="defs5510">
    <marker
       inkscape:stockid="Arrow1Mend"
       orient="auto"
       refY="0"
       refX="0"
       id="marker18029"
       style="overflow:visible"
       inkscape:isstock="true">
      <path
         id="path18031"
         d="M 0,0 5,-5 -12.5,0 5,5 0,0 Z"
         style="fill:#4196b2;fill-opacity:1;fill-rule:evenodd;stroke:#4196b2;stroke-width:1pt;stroke-opacity:1"
         transform="matrix(-0.4,0,0,-0.4,-4,0)"
         inkscape:connector-curvature="0" />
    </marker>
    <marker
       inkscape:isstock="true"
       style="overflow:visible"
       id="marker6600"
       refX="0"
       refY="0"
       orient="auto"
       inkscape:stockid="Arrow2Send">
      <path
         inkscape:connector-curvature="0"
         transform="matrix(-0.3,0,0,-0.3,0.69,0)"
         d="M 8.7185878,4.0337352 -2.2072895,0.01601326 8.7185884,-4.0017078 c -1.7454984,2.3720609 -1.7354408,5.6174519 -6e-7,8.035443 z"
         style="fill:#000000;fill-opacity:1;fill-rule:evenodd;stroke:#000000;stroke-width:0.625;stroke-linejoin:round;stroke-opacity:1"
         id="path6602" />
    </marker>
  </defs>
  <sodipodi:namedview
     id="base"
     pagecolor="#ffffff"
     bordercolor="#666666"
     borderopacity="1.0"
     inkscape:pageopacity="0.0"
     inkscape:pageshadow="2"
     inkscape:zoom="3.959798"
     inkscape:cx="189.07924"
     inkscape:cy="131.22503"
     inkscape:document-units="px"
     inkscape:current-layer="layer1"
     showgrid="false"
     inkscape:window-width="2560"
     inkscape:window-height="1545"
     inkscape:window-x="0"
     inkscape:window-y="31"
     inkscape:window-maximized="1"
     fit-margin-top="1"
     fit-margin-left="1"
     fit-margin-bottom="1"
     fit-margin-right="1" />
  <metadata
     id="metadata5513">
    <rdf:RDF>
      <cc:Work
         rdf:about="">
        <dc:format>image/svg+xml</dc:format>
        <dc:type
           rdf:resource="http://purl.org/dc/dcmitype/StillImage" />
        <dc:title></dc:title>
      </cc:Work>
    </rdf:RDF>
  </metadata>
  <g
     inkscape:label="Layer 1"
     inkscape:groupmode="layer"
     id="layer1"
     transform="translate(2.3104892,-747.01755)">
    <text
       xml:space="preserve"
       style="font-style:normal;font-weight:normal;font-size:8.14581203px;line-height:200%;font-family:sans-serif;text-align:center;letter-spacing:0px;word-spacing:0px;writing-mode:lr-tb;text-anchor:middle;fill:#4daf4a;fill-opacity:1;stroke:none;stroke-width:1px;stroke-linecap:butt;stroke-linejoin:miter;stroke-opacity:1"
       x="229.38652"
       y="760.28577"
       id="text5636"
       sodipodi:linespacing="200%"><tspan
         sodipodi:role="line"
         id="tspan5638"
         x="229.38652"
         y="760.28577"
         style="font-style:normal;font-variant:normal;font-weight:bold;font-stretch:normal;font-size:13.57635307px;font-family:'CMU Sans Serif';-inkscape-font-specification:'CMU Sans Serif Bold';fill:#4daf4a;fill-opacity:1">J</tspan></text>
    <text
       xml:space="preserve"
       style="font-style:normal;font-weight:normal;font-size:8.14581203px;line-height:200%;font-family:sans-serif;text-align:center;letter-spacing:0px;word-spacing:0px;writing-mode:lr-tb;text-anchor:middle;fill:#e41a1c;fill-opacity:1;stroke:none;stroke-width:1px;stroke-linecap:butt;stroke-linejoin:miter;stroke-opacity:1"
       x="90.095871"
       y="760.37885"
       id="text5628"
       sodipodi:linespacing="200%"><tspan
         sodipodi:role="line"
         id="tspan5630"
         x="90.095871"
         y="760.37885"
         style="font-style:normal;font-variant:normal;font-weight:bold;font-stretch:normal;font-size:13.57635307px;font-family:'CMU Sans Serif';-inkscape-font-specification:'CMU Sans Serif Bold';fill:#e41a1c;fill-opacity:1">V</tspan></text>
    <path
       sodipodi:nodetypes="cccccccccccccccccccc"
       id="rect5114"
       d="m 33.306556,772.85397 0,2.70527 122.272404,0 0,-2.70527 z m 129.865004,0 0,2.70527 30.2863,0 0,-2.70527 z m 37.8789,0 0,2.70527 55.1579,0 0,-2.70527 z m 62.7504,0 0,2.70527 91.5295,0 0,-2.70527 z"
       style="opacity:1;fill:#000000;fill-opacity:1;fill-rule:evenodd;stroke:none;stroke-width:20;stroke-miterlimit:4;stroke-dasharray:none;stroke-dashoffset:0;stroke-opacity:1"
       inkscape:connector-curvature="0" />
    <path
       inkscape:connector-curvature="0"
       id="rect4140"
       d="m 33.579156,767.23356 35.042897,0 0,14.06379 -35.042897,0 z"
       style="opacity:1;fill:#e41a1c;fill-opacity:1;fill-rule:evenodd;stroke:#e41a1c;stroke-width:0.82734108;stroke-miterlimit:4;stroke-dasharray:none;stroke-dashoffset:0;stroke-opacity:1" />
    <path
       inkscape:connector-curvature="0"
       id="rect4142"
       d="m 72.376453,767.23356 35.042807,0 0,14.06379 -35.042807,0 z"
       style="opacity:1;fill:#e41a1c;fill-opacity:1;fill-rule:evenodd;stroke:#e41a1c;stroke-width:0.82734108;stroke-miterlimit:4;stroke-dasharray:none;stroke-dashoffset:0;stroke-opacity:1" />
    <path
       inkscape:connector-curvature="0"
       id="rect4144"
       d="m 111.55046,767.23356 35.0429,0 0,14.06379 -35.0429,0 z"
       style="opacity:1;fill:#e41a1c;fill-opacity:1;fill-rule:evenodd;stroke:#e41a1c;stroke-width:0.82734108;stroke-miterlimit:4;stroke-dasharray:none;stroke-dashoffset:0;stroke-opacity:1" />
    <path
       inkscape:connector-curvature="0"
       id="rect4148"
       d="m 168.67766,767.23356 1.1681,0 0,14.06379 -1.1681,0 z"
       style="opacity:1;fill:#377eb8;fill-opacity:1;fill-rule:evenodd;stroke:#377eb8;stroke-width:0.82734108;stroke-miterlimit:4;stroke-dasharray:none;stroke-dashoffset:0;stroke-opacity:1" />
    <path
       inkscape:connector-curvature="0"
       id="rect4152"
       d="m 171.27396,767.23356 1.1681,0 0,14.06379 -1.1681,0 z"
       style="opacity:1;fill:#377eb8;fill-opacity:1;fill-rule:evenodd;stroke:#377eb8;stroke-width:0.82734108;stroke-miterlimit:4;stroke-dasharray:none;stroke-dashoffset:0;stroke-opacity:1" />
    <path
       inkscape:connector-curvature="0"
       id="rect4154"
       d="m 174.10566,767.23356 1.1681,0 0,14.06379 -1.1681,0 z"
       style="opacity:1;fill:#377eb8;fill-opacity:1;fill-rule:evenodd;stroke:#377eb8;stroke-width:0.82734108;stroke-miterlimit:4;stroke-dasharray:none;stroke-dashoffset:0;stroke-opacity:1" />
    <path
       inkscape:connector-curvature="0"
       id="rect4156"
       d="m 176.70206,767.23356 1.1681,0 0,14.06379 -1.1681,0 z"
       style="opacity:1;fill:#377eb8;fill-opacity:1;fill-rule:evenodd;stroke:#377eb8;stroke-width:0.82734108;stroke-miterlimit:4;stroke-dasharray:none;stroke-dashoffset:0;stroke-opacity:1" />
    <path
       inkscape:connector-curvature="0"
       id="rect4158"
       d="m 179.29726,767.23356 1.1681,0 0,14.06379 -1.1681,0 z"
       style="opacity:1;fill:#377eb8;fill-opacity:1;fill-rule:evenodd;stroke:#377eb8;stroke-width:0.82734108;stroke-miterlimit:4;stroke-dasharray:none;stroke-dashoffset:0;stroke-opacity:1" />
    <path
       inkscape:connector-curvature="0"
       id="rect4160"
       d="m 181.89366,767.23356 1.1681,0 0,14.06379 -1.1681,0 z"
       style="opacity:1;fill:#377eb8;fill-opacity:1;fill-rule:evenodd;stroke:#377eb8;stroke-width:0.82734108;stroke-miterlimit:4;stroke-dasharray:none;stroke-dashoffset:0;stroke-opacity:1" />
    <path
       inkscape:connector-curvature="0"
       id="rect4162"
       d="m 184.72526,767.23356 1.1681,0 0,14.06379 -1.1681,0 z"
       style="opacity:1;fill:#377eb8;fill-opacity:1;fill-rule:evenodd;stroke:#377eb8;stroke-width:0.82734108;stroke-miterlimit:4;stroke-dasharray:none;stroke-dashoffset:0;stroke-opacity:1" />
    <path
       inkscape:connector-curvature="0"
       id="rect4164"
       d="m 187.32166,767.23356 1.1681,0 0,14.06379 -1.1681,0 z"
       style="opacity:1;fill:#377eb8;fill-opacity:1;fill-rule:evenodd;stroke:#377eb8;stroke-width:0.82734108;stroke-miterlimit:4;stroke-dasharray:none;stroke-dashoffset:0;stroke-opacity:1" />
    <path
       inkscape:connector-curvature="0"
       id="rect4150"
       d="m 245.27186,767.23356 5.8405,0 0,14.06379 -5.8405,0 z"
       style="opacity:1;fill:#4daf4a;fill-opacity:1;fill-rule:evenodd;stroke:#4daf4a;stroke-width:0.82734108;stroke-miterlimit:4;stroke-dasharray:none;stroke-dashoffset:0;stroke-opacity:1" />
    <path
       inkscape:connector-curvature="0"
       id="rect4166"
       d="m 237.60266,767.23356 5.8404,0 0,14.06379 -5.8404,0 z"
       style="opacity:1;fill:#4daf4a;fill-opacity:1;fill-rule:evenodd;stroke:#4daf4a;stroke-width:0.82734108;stroke-miterlimit:4;stroke-dasharray:none;stroke-dashoffset:0;stroke-opacity:1" />
    <path
       inkscape:connector-curvature="0"
       id="rect4168"
       d="m 230.05016,767.23356 5.8405,0 0,14.06379 -5.8405,0 z"
       style="opacity:1;fill:#4daf4a;fill-opacity:1;fill-rule:evenodd;stroke:#4daf4a;stroke-width:0.82734108;stroke-miterlimit:4;stroke-dasharray:none;stroke-dashoffset:0;stroke-opacity:1" />
    <path
       inkscape:connector-curvature="0"
       id="rect4170"
       d="m 222.38086,767.23356 5.8405,0 0,14.06379 -5.8405,0 z"
       style="opacity:1;fill:#4daf4a;fill-opacity:1;fill-rule:evenodd;stroke:#4daf4a;stroke-width:0.82734108;stroke-miterlimit:4;stroke-dasharray:none;stroke-dashoffset:0;stroke-opacity:1" />
    <path
       inkscape:connector-curvature="0"
       id="rect4172"
       d="m 214.71066,767.23356 5.8405,0 0,14.06379 -5.8405,0 z"
       style="opacity:1;fill:#4daf4a;fill-opacity:1;fill-rule:evenodd;stroke:#4daf4a;stroke-width:0.82734108;stroke-miterlimit:4;stroke-dasharray:none;stroke-dashoffset:0;stroke-opacity:1" />
    <path
       inkscape:connector-curvature="0"
       id="rect4174"
       d="m 207.04146,767.23356 5.8404,0 0,14.06379 -5.8404,0 z"
       style="opacity:1;fill:#4daf4a;fill-opacity:1;fill-rule:evenodd;stroke:#4daf4a;stroke-width:0.82734108;stroke-miterlimit:4;stroke-dasharray:none;stroke-dashoffset:0;stroke-opacity:1" />
    <g
       transform="matrix(0.11683678,0,0,0.11683678,8567.7656,1432.3232)"
       id="g5131">
      <path
         style="fill:none;fill-rule:evenodd;stroke:#000000;stroke-width:7.08117008;stroke-linecap:butt;stroke-linejoin:miter;stroke-miterlimit:4;stroke-dasharray:none;stroke-opacity:1"
         d="m -71993.482,-5563.3202 37.519,-130.4021"
         id="path4176"
         inkscape:connector-curvature="0" />
      <path
         inkscape:connector-curvature="0"
         id="path4178"
         d="m -71980.858,-5563.3202 37.519,-130.4021"
         style="fill:none;fill-rule:evenodd;stroke:#000000;stroke-width:7.08117008;stroke-linecap:butt;stroke-linejoin:miter;stroke-miterlimit:4;stroke-dasharray:none;stroke-opacity:1" />
    </g>
    <g
       transform="matrix(0.11683678,0,0,0.11683678,8567.7656,1432.3232)"
       id="g5135">
      <path
         inkscape:connector-curvature="0"
         id="path4191"
         d="m -71669.272,-5563.3202 37.519,-130.4021"
         style="fill:none;fill-rule:evenodd;stroke:#000000;stroke-width:7.08117008;stroke-linecap:butt;stroke-linejoin:miter;stroke-miterlimit:4;stroke-dasharray:none;stroke-opacity:1" />
      <path
         style="fill:none;fill-rule:evenodd;stroke:#000000;stroke-width:7.08117008;stroke-linecap:butt;stroke-linejoin:miter;stroke-miterlimit:4;stroke-dasharray:none;stroke-opacity:1"
         d="m -71656.648,-5563.3202 37.519,-130.4021"
         id="path4193"
         inkscape:connector-curvature="0" />
    </g>
    <g
       transform="matrix(0.11683678,0,0,0.11683678,8568.2332,1432.3232)"
       id="g5139">
      <path
         style="fill:none;fill-rule:evenodd;stroke:#000000;stroke-width:7.08117008;stroke-linecap:butt;stroke-linejoin:miter;stroke-miterlimit:4;stroke-dasharray:none;stroke-opacity:1"
         d="m -71136.199,-5563.3202 37.519,-130.4021"
         id="path4207"
         inkscape:connector-curvature="0" />
      <path
         inkscape:connector-curvature="0"
         id="path4209"
         d="m -71123.575,-5563.3202 37.519,-130.4021"
         style="fill:none;fill-rule:evenodd;stroke:#000000;stroke-width:7.08117008;stroke-linecap:butt;stroke-linejoin:miter;stroke-miterlimit:4;stroke-dasharray:none;stroke-opacity:1" />
    </g>
    <g
       transform="matrix(0.11683678,0,0,0.11683678,8549.1084,1432.3232)"
       style="font-style:normal;font-weight:normal;font-size:42.5px;line-height:125%;font-family:sans-serif;text-align:start;letter-spacing:0px;word-spacing:0px;writing-mode:lr-tb;text-anchor:start;fill:#000000;fill-opacity:1;stroke:#000000;stroke-width:1px;stroke-linecap:butt;stroke-linejoin:miter;stroke-opacity:1"
       id="text4213">
      <path
         d="m -70101.401,-5628.4577 0,-7.2 q 0.09,-0.9 0.09,-1.08 0,-0.27 0.18,-0.72 0.18,-0.54 0.54,-0.63 0.45,-0.09 1.17,-0.09 l 7.83,0 q 1.26,0 1.62,0.45 0.36,0.45 0.36,1.44 l 0,7.38 q 0,0.81 0,1.08 0,0.27 -0.18,0.72 -0.18,0.45 -0.63,0.63 -0.36,0.09 -1.08,0.09 l -7.83,0 q -2.07,0 -2.07,-2.07 z"
         style="font-style:normal;font-variant:normal;font-weight:bold;font-stretch:normal;font-size:90px;font-family:'CMU Sans Serif';-inkscape-font-specification:'CMU Sans Serif Bold'"
         id="path5476"
         inkscape:connector-curvature="0" />
      <path
         d="m -70073.979,-5628.4577 0,-7.2 q 0.09,-0.9 0.09,-1.08 0,-0.27 0.18,-0.72 0.18,-0.54 0.54,-0.63 0.45,-0.09 1.17,-0.09 l 7.83,0 q 1.26,0 1.62,0.45 0.36,0.45 0.36,1.44 l 0,7.38 q 0,0.81 0,1.08 0,0.27 -0.18,0.72 -0.18,0.45 -0.63,0.63 -0.36,0.09 -1.08,0.09 l -7.83,0 q -2.07,0 -2.07,-2.07 z"
         style="font-style:normal;font-variant:normal;font-weight:bold;font-stretch:normal;font-size:90px;font-family:'CMU Sans Serif';-inkscape-font-specification:'CMU Sans Serif Bold'"
         id="path5479"
         inkscape:connector-curvature="0" />
      <path
         d="m -70046.557,-5628.4577 0,-7.2 q 0.09,-0.9 0.09,-1.08 0,-0.27 0.18,-0.72 0.18,-0.54 0.54,-0.63 0.45,-0.09 1.17,-0.09 l 7.83,0 q 1.26,0 1.62,0.45 0.36,0.45 0.36,1.44 l 0,7.38 q 0,0.81 0,1.08 0,0.27 -0.18,0.72 -0.18,0.45 -0.63,0.63 -0.36,0.09 -1.08,0.09 l -7.83,0 q -2.07,0 -2.07,-2.07 z"
         style="font-style:normal;font-variant:normal;font-weight:bold;font-stretch:normal;font-size:90px;font-family:'CMU Sans Serif';-inkscape-font-specification:'CMU Sans Serif Bold'"
         id="path5481"
         inkscape:connector-curvature="0" />
    </g>
    <text
       sodipodi:linespacing="200%"
       id="text5632"
       y="760.37885"
       x="178.39311"
       style="font-style:normal;font-weight:normal;font-size:8.14581203px;line-height:200%;font-family:sans-serif;text-align:center;letter-spacing:0px;word-spacing:0px;writing-mode:lr-tb;text-anchor:middle;fill:#377eb8;fill-opacity:1;stroke:none;stroke-width:1px;stroke-linecap:butt;stroke-linejoin:miter;stroke-opacity:1"
       xml:space="preserve"><tspan
         style="font-style:normal;font-variant:normal;font-weight:bold;font-stretch:normal;font-size:13.57635307px;font-family:'CMU Sans Serif';-inkscape-font-specification:'CMU Sans Serif Bold';fill:#377eb8;fill-opacity:1"
         y="760.37885"
         x="178.39311"
         id="tspan5634"
         sodipodi:role="line">D</tspan></text>
    <text
       sodipodi:linespacing="200%"
       id="text5556"
       y="760.2951"
       x="315.34698"
       style="font-style:normal;font-weight:normal;font-size:8.14581203px;line-height:200%;font-family:sans-serif;text-align:center;letter-spacing:0px;word-spacing:0px;writing-mode:lr-tb;text-anchor:middle;fill:#000000;fill-opacity:1;stroke:none;stroke-width:1px;stroke-linecap:butt;stroke-linejoin:miter;stroke-opacity:1"
       xml:space="preserve"><tspan
         style="font-style:normal;font-variant:normal;font-weight:bold;font-stretch:normal;font-size:13.57635307px;font-family:'CMU Sans Serif';-inkscape-font-specification:'CMU Sans Serif Bold';fill:#000000;fill-opacity:1"
         y="760.2951"
         x="315.34698"
         id="tspan5558"
         sodipodi:role="line">C</tspan></text>
    <g
       transform="matrix(0.11683678,0,0,0.11683678,8568.2332,1432.3232)"
       style="font-style:normal;font-weight:normal;font-size:42.5px;line-height:125%;font-family:sans-serif;text-align:start;letter-spacing:0px;word-spacing:0px;writing-mode:lr-tb;text-anchor:start;fill:#000000;fill-opacity:1;stroke:#000000;stroke-width:1px;stroke-linecap:butt;stroke-linejoin:miter;stroke-opacity:1"
       id="text4275">
      <path
         d="m -73135.713,-5628.4577 0,-7.2 q 0.09,-0.9 0.09,-1.08 0,-0.27 0.18,-0.72 0.18,-0.54 0.54,-0.63 0.45,-0.09 1.17,-0.09 l 7.83,0 q 1.26,0 1.62,0.45 0.36,0.45 0.36,1.44 l 0,7.38 q 0,0.81 0,1.08 0,0.27 -0.18,0.72 -0.18,0.45 -0.63,0.63 -0.36,0.09 -1.08,0.09 l -7.83,0 q -2.07,0 -2.07,-2.07 z"
         style="font-style:normal;font-variant:normal;font-weight:bold;font-stretch:normal;font-size:90px;font-family:'CMU Sans Serif';-inkscape-font-specification:'CMU Sans Serif Bold'"
         id="path5496"
         inkscape:connector-curvature="0" />
      <path
         d="m -73108.291,-5628.4577 0,-7.2 q 0.09,-0.9 0.09,-1.08 0,-0.27 0.18,-0.72 0.18,-0.54 0.54,-0.63 0.45,-0.09 1.17,-0.09 l 7.83,0 q 1.26,0 1.62,0.45 0.36,0.45 0.36,1.44 l 0,7.38 q 0,0.81 0,1.08 0,0.27 -0.18,0.72 -0.18,0.45 -0.63,0.63 -0.36,0.09 -1.08,0.09 l -7.83,0 q -2.07,0 -2.07,-2.07 z"
         style="font-style:normal;font-variant:normal;font-weight:bold;font-stretch:normal;font-size:90px;font-family:'CMU Sans Serif';-inkscape-font-specification:'CMU Sans Serif Bold'"
         id="path5498"
         inkscape:connector-curvature="0" />
      <path
         d="m -73080.869,-5628.4577 0,-7.2 q 0.09,-0.9 0.09,-1.08 0,-0.27 0.18,-0.72 0.18,-0.54 0.54,-0.63 0.45,-0.09 1.17,-0.09 l 7.83,0 q 1.26,0 1.62,0.45 0.36,0.45 0.36,1.44 l 0,7.38 q 0,0.81 0,1.08 0,0.27 -0.18,0.72 -0.18,0.45 -0.63,0.63 -0.36,0.09 -1.08,0.09 l -7.83,0 q -2.07,0 -2.07,-2.07 z"
         style="font-style:normal;font-variant:normal;font-weight:bold;font-stretch:normal;font-size:90px;font-family:'CMU Sans Serif';-inkscape-font-specification:'CMU Sans Serif Bold'"
         id="path5500"
         inkscape:connector-curvature="0" />
    </g>
    <g
       transform="matrix(0.54305414,0,0,0.54305414,6.1524555,703.65696)"
       id="g7138">
      <path
         inkscape:connector-curvature="0"
         id="path7126"
         d="m 494.68448,117.80112 24.00152,0 0,24.43995 -24.00152,0 z"
         style="opacity:1;fill:#000000;fill-opacity:1;fill-rule:evenodd;stroke:#000000;stroke-width:2.55249977;stroke-miterlimit:4;stroke-dasharray:none;stroke-dashoffset:0;stroke-opacity:1"
         sodipodi:nodetypes="ccccc" />
      <path
         sodipodi:nodetypes="ccccc"
         style="opacity:1;fill:#000000;fill-opacity:1;fill-rule:evenodd;stroke:#000000;stroke-width:2.55249977;stroke-miterlimit:4;stroke-dasharray:none;stroke-dashoffset:0;stroke-opacity:1"
         d="m 526.72526,117.80112 24.00152,0 0,24.43995 -24.00152,0 z"
         id="path7128"
         inkscape:connector-curvature="0" />
      <path
         inkscape:connector-curvature="0"
         id="path7130"
         d="m 560.69953,117.80112 24.00152,0 0,24.43995 -24.00152,0 z"
         style="opacity:1;fill:#000000;fill-opacity:1;fill-rule:evenodd;stroke:#000000;stroke-width:2.55249977;stroke-miterlimit:4;stroke-dasharray:none;stroke-dashoffset:0;stroke-opacity:1"
         sodipodi:nodetypes="ccccc" />
      <path
         sodipodi:nodetypes="ccccc"
         style="opacity:1;fill:#000000;fill-opacity:1;fill-rule:evenodd;stroke:#000000;stroke-width:2.55249977;stroke-miterlimit:4;stroke-dasharray:none;stroke-dashoffset:0;stroke-opacity:1"
         d="m 593.29273,117.80112 24.00152,0 0,24.43995 -24.00152,0 z"
         id="path7132"
         inkscape:connector-curvature="0" />
      <path
         inkscape:connector-curvature="0"
         id="path7134"
         d="m 625.33351,117.80112 5.49521,0 0,24.43995 -5.49521,0 z"
         style="opacity:1;fill:#000000;fill-opacity:1;fill-rule:evenodd;stroke:#000000;stroke-width:2.55249977;stroke-miterlimit:4;stroke-dasharray:none;stroke-dashoffset:0;stroke-opacity:1"
         sodipodi:nodetypes="ccccc" />
      <path
         sodipodi:nodetypes="ccccc"
         style="opacity:1;fill:#000000;fill-opacity:1;fill-rule:evenodd;stroke:#000000;stroke-width:2.55249977;stroke-miterlimit:4;stroke-dasharray:none;stroke-dashoffset:0;stroke-opacity:1"
         d="m 638.59176,117.80112 5.49521,0 0,24.43995 -5.49521,0 z"
         id="path7136"
         inkscape:connector-curvature="0" />
    </g>
    <text
       xml:space="preserve"
       style="font-style:normal;font-weight:normal;font-size:15px;line-height:120.00000477%;font-family:sans-serif;text-align:center;letter-spacing:0px;word-spacing:0px;writing-mode:lr-tb;text-anchor:middle;fill:#b24141;fill-opacity:1;stroke:none;stroke-width:1px;stroke-linecap:butt;stroke-linejoin:miter;stroke-opacity:1"
       x="192.84398"
       y="820.21936"
       id="text16450"
       sodipodi:linespacing="120%"><tspan
         sodipodi:role="line"
         x="192.84398"
         y="820.21936"
         id="tspan16452"
         style="font-style:normal;font-variant:normal;font-weight:500;font-stretch:normal;line-height:120.00000477%;font-family:'CMU Sans Serif';-inkscape-font-specification:'CMU Sans Serif Medium';fill:#b24141;fill-opacity:1">V1/J3</tspan></text>
    <g
       id="g16786"
       transform="translate(-0.64917493,0)">
      <g
         id="g16426"
         transform="matrix(1.1590777,0,0,1.1590777,152.16284,-143.41242)">
        <path
           inkscape:connector-curvature="0"
           id="path16428"
           d="m 51.586036,860.33504 a 13.610145,13.610145 0 0 1 -13.610144,13.6102 13.610145,13.610145 0 0 1 -13.610144,-13.6102 13.610145,13.610145 0 0 1 13.610144,-13.61009 13.610145,13.610145 0 0 1 13.610144,13.61009 z"
           style="opacity:1;fill:#c8c8c8;fill-opacity:1;fill-rule:evenodd;stroke:#969696;stroke-width:1;stroke-miterlimit:4;stroke-dasharray:none;stroke-dashoffset:0;stroke-opacity:1" />
        <path
           inkscape:connector-curvature="0"
           id="path16430"
           d="m 44.953967,863.15537 a 7.9687609,6.9536327 0 0 1 -7.968761,6.9536 7.9687609,6.9536327 0 0 1 -7.968756,-6.9536 7.9687609,6.9536327 0 0 1 7.968756,-6.95365 7.9687609,6.9536327 0 0 1 7.968761,6.95365 z"
           style="opacity:1;fill:#b4b4b4;fill-opacity:1;fill-rule:evenodd;stroke:#969696;stroke-width:1;stroke-miterlimit:4;stroke-dasharray:none;stroke-dashoffset:0;stroke-opacity:1" />
        <text
           transform="matrix(0.79302418,-0.60919015,0.60919015,0.79302418,0,0)"
           sodipodi:linespacing="125%"
           id="text16432"
           y="691.57507"
           x="-499.41776"
           style="font-style:normal;font-weight:normal;font-size:14.58399487px;line-height:125%;font-family:sans-serif;text-align:start;letter-spacing:0px;word-spacing:0px;writing-mode:lr-tb;text-anchor:start;fill:#969696;fill-opacity:1;stroke:none;stroke-width:1px;stroke-linecap:butt;stroke-linejoin:miter;stroke-opacity:1"
           xml:space="preserve"><tspan
             y="691.57507"
             x="-499.41776"
             id="tspan16434"
             sodipodi:role="line">Y</tspan></text>
      </g>
      <path
         inkscape:connector-curvature="0"
         id="path16442"
         d="m 211.95506,853.78274 a 15.775216,15.775216 0 0 1 -15.77521,15.77528 15.775216,15.775216 0 0 1 -15.77521,-15.77528 15.775216,15.775216 0 0 1 15.77521,-15.77515 15.775216,15.775216 0 0 1 15.77521,15.77515 z"
         style="opacity:1;fill:#e7bdbd;fill-opacity:1;fill-rule:evenodd;stroke:#b24141;stroke-width:1.15900004;stroke-miterlimit:4;stroke-dasharray:none;stroke-dashoffset:0;stroke-opacity:1" />
      <path
         inkscape:connector-curvature="0"
         id="path16444"
         d="m 204.26798,857.05172 a 9.2364131,8.0598006 0 0 1 -9.23641,8.05976 9.2364131,8.0598006 0 0 1 -9.23641,-8.05976 9.2364131,8.0598006 0 0 1 9.23641,-8.05982 9.2364131,8.0598006 0 0 1 9.23641,8.05982 z"
         style="opacity:1;fill:#d79191;fill-opacity:1;fill-rule:evenodd;stroke:#b24141;stroke-width:1.15907764;stroke-miterlimit:4;stroke-dasharray:none;stroke-dashoffset:0;stroke-opacity:1" />
      <text
         transform="matrix(0.79302418,-0.60919016,0.60919016,0.79302418,0,0)"
         sodipodi:linespacing="125%"
         id="text16446"
         y="780.55579"
         x="-370.82974"
         style="font-style:normal;font-weight:normal;font-size:16.90398407px;line-height:125%;font-family:sans-serif;text-align:start;letter-spacing:0px;word-spacing:0px;writing-mode:lr-tb;text-anchor:start;fill:#b24141;fill-opacity:1;stroke:none;stroke-width:1px;stroke-linecap:butt;stroke-linejoin:miter;stroke-opacity:1"
         xml:space="preserve"><tspan
           y="780.55579"
           x="-370.82974"
           id="tspan16448"
           sodipodi:role="line">Y</tspan></text>
    </g>
    <text
       sodipodi:linespacing="120%"
       id="text16501"
       y="820.21936"
       x="273.63736"
       style="font-style:normal;font-weight:normal;font-size:15px;line-height:120.00000477%;font-family:sans-serif;text-align:center;letter-spacing:0px;word-spacing:0px;writing-mode:lr-tb;text-anchor:middle;fill:#b24141;fill-opacity:1;stroke:none;stroke-width:1px;stroke-linecap:butt;stroke-linejoin:miter;stroke-opacity:1"
       xml:space="preserve"><tspan
         style="font-style:normal;font-variant:normal;font-weight:500;font-stretch:normal;line-height:120.00000477%;font-family:'CMU Sans Serif';-inkscape-font-specification:'CMU Sans Serif Medium';fill:#b24141;fill-opacity:1"
         id="tspan16503"
         y="820.21936"
         x="273.63736"
         sodipodi:role="line">V1/J3</tspan></text>
    <g
       id="g16797"
       transform="translate(-0.64917493,0)">
      <g
         transform="matrix(1.1590777,0,0,1.1590777,232.95622,-143.41242)"
         id="g16505">
        <path
           style="opacity:1;fill:#c8c8c8;fill-opacity:1;fill-rule:evenodd;stroke:#969696;stroke-width:1;stroke-miterlimit:4;stroke-dasharray:none;stroke-dashoffset:0;stroke-opacity:1"
           d="m 51.586036,860.33504 a 13.610145,13.610145 0 0 1 -13.610144,13.6102 13.610145,13.610145 0 0 1 -13.610144,-13.6102 13.610145,13.610145 0 0 1 13.610144,-13.61009 13.610145,13.610145 0 0 1 13.610144,13.61009 z"
           id="path16507"
           inkscape:connector-curvature="0" />
        <path
           style="opacity:1;fill:#b4b4b4;fill-opacity:1;fill-rule:evenodd;stroke:#969696;stroke-width:1;stroke-miterlimit:4;stroke-dasharray:none;stroke-dashoffset:0;stroke-opacity:1"
           d="m 44.953967,863.15537 a 7.9687609,6.9536327 0 0 1 -7.968761,6.9536 7.9687609,6.9536327 0 0 1 -7.968756,-6.9536 7.9687609,6.9536327 0 0 1 7.968756,-6.95365 7.9687609,6.9536327 0 0 1 7.968761,6.95365 z"
           id="path16509"
           inkscape:connector-curvature="0" />
        <text
           xml:space="preserve"
           style="font-style:normal;font-weight:normal;font-size:14.58399487px;line-height:125%;font-family:sans-serif;text-align:start;letter-spacing:0px;word-spacing:0px;writing-mode:lr-tb;text-anchor:start;fill:#969696;fill-opacity:1;stroke:none;stroke-width:1px;stroke-linecap:butt;stroke-linejoin:miter;stroke-opacity:1"
           x="-499.41776"
           y="691.57507"
           id="text16511"
           sodipodi:linespacing="125%"
           transform="matrix(0.79302418,-0.60919015,0.60919015,0.79302418,0,0)"><tspan
             sodipodi:role="line"
             id="tspan16513"
             x="-499.41776"
             y="691.57507">Y</tspan></text>
      </g>
      <path
         style="opacity:1;fill:#e7bdbd;fill-opacity:1;fill-rule:evenodd;stroke:#b24141;stroke-width:1.15900004;stroke-miterlimit:4;stroke-dasharray:none;stroke-dashoffset:0;stroke-opacity:1"
         d="m 292.74844,853.78274 a 15.775216,15.775216 0 0 1 -15.77521,15.77528 15.775216,15.775216 0 0 1 -15.77521,-15.77528 15.775216,15.775216 0 0 1 15.77521,-15.77515 15.775216,15.775216 0 0 1 15.77521,15.77515 z"
         id="path16515"
         inkscape:connector-curvature="0" />
      <path
         style="opacity:1;fill:#d79191;fill-opacity:1;fill-rule:evenodd;stroke:#b24141;stroke-width:1.15907764;stroke-miterlimit:4;stroke-dasharray:none;stroke-dashoffset:0;stroke-opacity:1"
         d="m 285.06136,857.05172 a 9.2364131,8.0598006 0 0 1 -9.23641,8.05976 9.2364131,8.0598006 0 0 1 -9.23641,-8.05976 9.2364131,8.0598006 0 0 1 9.23641,-8.05982 9.2364131,8.0598006 0 0 1 9.23641,8.05982 z"
         id="path16517"
         inkscape:connector-curvature="0" />
      <text
         xml:space="preserve"
         style="font-style:normal;font-weight:normal;font-size:16.90398407px;line-height:125%;font-family:sans-serif;text-align:start;letter-spacing:0px;word-spacing:0px;writing-mode:lr-tb;text-anchor:start;fill:#b24141;fill-opacity:1;stroke:none;stroke-width:1px;stroke-linecap:butt;stroke-linejoin:miter;stroke-opacity:1"
         x="-306.75861"
         y="829.77429"
         id="text16519"
         sodipodi:linespacing="125%"
         transform="matrix(0.79302418,-0.60919016,0.60919016,0.79302418,0,0)"><tspan
           sodipodi:role="line"
           id="tspan16521"
           x="-306.75861"
           y="829.77429">Y</tspan></text>
    </g>
    <g
       id="g16285"
       transform="matrix(1.1590777,0,0,1.1590777,-9.1874569,-143.41242)">
      <path
         inkscape:connector-curvature="0"
         id="path13243"
         d="m 51.586036,860.33504 a 13.610145,13.610145 0 0 1 -13.610144,13.6102 13.610145,13.610145 0 0 1 -13.610144,-13.6102 13.610145,13.610145 0 0 1 13.610144,-13.61009 13.610145,13.610145 0 0 1 13.610144,13.61009 z"
         style="opacity:1;fill:#c8c8c8;fill-opacity:1;fill-rule:evenodd;stroke:#969696;stroke-width:1;stroke-miterlimit:4;stroke-dasharray:none;stroke-dashoffset:0;stroke-opacity:1" />
      <path
         inkscape:connector-curvature="0"
         id="path13245"
         d="m 44.953967,863.15537 a 7.9687609,6.9536327 0 0 1 -7.968761,6.9536 7.9687609,6.9536327 0 0 1 -7.968756,-6.9536 7.9687609,6.9536327 0 0 1 7.968756,-6.95365 7.9687609,6.9536327 0 0 1 7.968761,6.95365 z"
         style="opacity:1;fill:#b4b4b4;fill-opacity:1;fill-rule:evenodd;stroke:#969696;stroke-width:1;stroke-miterlimit:4;stroke-dasharray:none;stroke-dashoffset:0;stroke-opacity:1" />
      <text
         transform="matrix(0.79302418,-0.60919015,0.60919015,0.79302418,0,0)"
         sodipodi:linespacing="125%"
         id="text16877"
         y="691.57507"
         x="-499.41776"
         style="font-style:normal;font-weight:normal;font-size:14.58399487px;line-height:125%;font-family:sans-serif;text-align:start;letter-spacing:0px;word-spacing:0px;writing-mode:lr-tb;text-anchor:start;fill:#969696;fill-opacity:1;stroke:none;stroke-width:1px;stroke-linecap:butt;stroke-linejoin:miter;stroke-opacity:1"
         xml:space="preserve"><tspan
           y="691.57507"
           x="-499.41776"
           id="tspan16879"
           sodipodi:role="line">Y</tspan></text>
    </g>
    <text
       xml:space="preserve"
       style="font-style:normal;font-weight:normal;font-size:15px;line-height:120.00000477%;font-family:sans-serif;text-align:center;letter-spacing:0px;word-spacing:0px;writing-mode:lr-tb;text-anchor:middle;fill:#969696;fill-opacity:1;stroke:none;stroke-width:1px;stroke-linecap:butt;stroke-linejoin:miter;stroke-opacity:1"
       x="32.142857"
       y="820.21936"
       id="text16291"
       sodipodi:linespacing="120%"><tspan
         sodipodi:role="line"
         x="32.142857"
         y="820.21936"
         id="tspan16295"
         style="font-style:normal;font-variant:normal;font-weight:500;font-stretch:normal;line-height:120.00000477%;font-family:'CMU Sans Serif';-inkscape-font-specification:'CMU Sans Serif Medium';fill:#969696;fill-opacity:1">V2/J5</tspan></text>
    <g
       transform="matrix(1.1590777,0,0,1.1590777,-9.1874569,-143.41242)"
       id="g16299">
      <path
         style="opacity:1;fill:#c8c8c8;fill-opacity:1;fill-rule:evenodd;stroke:#969696;stroke-width:1;stroke-miterlimit:4;stroke-dasharray:none;stroke-dashoffset:0;stroke-opacity:1"
         d="m 51.586036,860.33504 a 13.610145,13.610145 0 0 1 -13.610144,13.6102 13.610145,13.610145 0 0 1 -13.610144,-13.6102 13.610145,13.610145 0 0 1 13.610144,-13.61009 13.610145,13.610145 0 0 1 13.610144,13.61009 z"
         id="path16301"
         inkscape:connector-curvature="0" />
      <path
         style="opacity:1;fill:#b4b4b4;fill-opacity:1;fill-rule:evenodd;stroke:#969696;stroke-width:1;stroke-miterlimit:4;stroke-dasharray:none;stroke-dashoffset:0;stroke-opacity:1"
         d="m 44.953967,863.15537 a 7.9687609,6.9536327 0 0 1 -7.968761,6.9536 7.9687609,6.9536327 0 0 1 -7.968756,-6.9536 7.9687609,6.9536327 0 0 1 7.968756,-6.95365 7.9687609,6.9536327 0 0 1 7.968761,6.95365 z"
         id="path16303"
         inkscape:connector-curvature="0" />
      <text
         xml:space="preserve"
         style="font-style:normal;font-weight:normal;font-size:14.58399487px;line-height:125%;font-family:sans-serif;text-align:start;letter-spacing:0px;word-spacing:0px;writing-mode:lr-tb;text-anchor:start;fill:#969696;fill-opacity:1;stroke:none;stroke-width:1px;stroke-linecap:butt;stroke-linejoin:miter;stroke-opacity:1"
         x="-499.41776"
         y="691.57507"
         id="text16305"
         sodipodi:linespacing="125%"
         transform="matrix(0.79302418,-0.60919015,0.60919015,0.79302418,0,0)"><tspan
           sodipodi:role="line"
           id="tspan16307"
           x="-499.41776"
           y="691.57507">Y</tspan></text>
    </g>
    <g
       transform="matrix(1.1590777,0,0,1.1590777,71.487695,-143.41242)"
       id="g16351">
      <path
         style="opacity:1;fill:#c8c8c8;fill-opacity:1;fill-rule:evenodd;stroke:#969696;stroke-width:1;stroke-miterlimit:4;stroke-dasharray:none;stroke-dashoffset:0;stroke-opacity:1"
         d="m 51.586036,860.33504 a 13.610145,13.610145 0 0 1 -13.610144,13.6102 13.610145,13.610145 0 0 1 -13.610144,-13.6102 13.610145,13.610145 0 0 1 13.610144,-13.61009 13.610145,13.610145 0 0 1 13.610144,13.61009 z"
         id="path16353"
         inkscape:connector-curvature="0" />
      <path
         style="opacity:1;fill:#b4b4b4;fill-opacity:1;fill-rule:evenodd;stroke:#969696;stroke-width:1;stroke-miterlimit:4;stroke-dasharray:none;stroke-dashoffset:0;stroke-opacity:1"
         d="m 44.953967,863.15537 a 7.9687609,6.9536327 0 0 1 -7.968761,6.9536 7.9687609,6.9536327 0 0 1 -7.968756,-6.9536 7.9687609,6.9536327 0 0 1 7.968756,-6.95365 7.9687609,6.9536327 0 0 1 7.968761,6.95365 z"
         id="path16355"
         inkscape:connector-curvature="0" />
      <text
         xml:space="preserve"
         style="font-style:normal;font-weight:normal;font-size:14.58399487px;line-height:125%;font-family:sans-serif;text-align:start;letter-spacing:0px;word-spacing:0px;writing-mode:lr-tb;text-anchor:start;fill:#969696;fill-opacity:1;stroke:none;stroke-width:1px;stroke-linecap:butt;stroke-linejoin:miter;stroke-opacity:1"
         x="-499.41776"
         y="691.57507"
         id="text16357"
         sodipodi:linespacing="125%"
         transform="matrix(0.79302418,-0.60919015,0.60919015,0.79302418,0,0)"><tspan
           sodipodi:role="line"
           id="tspan16359"
           x="-499.41776"
           y="691.57507">Y</tspan></text>
    </g>
    <text
       sodipodi:linespacing="120%"
       id="text16361"
       y="820.21936"
       x="112.81801"
       style="font-style:normal;font-weight:normal;font-size:15px;line-height:120.00000477%;font-family:sans-serif;text-align:center;letter-spacing:0px;word-spacing:0px;writing-mode:lr-tb;text-anchor:middle;fill:#969696;fill-opacity:1;stroke:none;stroke-width:1px;stroke-linecap:butt;stroke-linejoin:miter;stroke-opacity:1"
       xml:space="preserve"><tspan
         style="font-style:normal;font-variant:normal;font-weight:500;font-stretch:normal;line-height:120.00000477%;font-family:'CMU Sans Serif';-inkscape-font-specification:'CMU Sans Serif Medium';fill:#969696;fill-opacity:1"
         id="tspan16363"
         y="820.21936"
         x="112.81801"
         sodipodi:role="line">V2/J5</tspan></text>
    <g
       id="g16365"
       transform="matrix(1.1590777,0,0,1.1590777,71.487695,-143.41242)">
      <path
         inkscape:connector-curvature="0"
         id="path16367"
         d="m 51.586036,860.33504 a 13.610145,13.610145 0 0 1 -13.610144,13.6102 13.610145,13.610145 0 0 1 -13.610144,-13.6102 13.610145,13.610145 0 0 1 13.610144,-13.61009 13.610145,13.610145 0 0 1 13.610144,13.61009 z"
         style="opacity:1;fill:#c8c8c8;fill-opacity:1;fill-rule:evenodd;stroke:#969696;stroke-width:1;stroke-miterlimit:4;stroke-dasharray:none;stroke-dashoffset:0;stroke-opacity:1" />
      <path
         inkscape:connector-curvature="0"
         id="path16369"
         d="m 44.953967,863.15537 a 7.9687609,6.9536327 0 0 1 -7.968761,6.9536 7.9687609,6.9536327 0 0 1 -7.968756,-6.9536 7.9687609,6.9536327 0 0 1 7.968756,-6.95365 7.9687609,6.9536327 0 0 1 7.968761,6.95365 z"
         style="opacity:1;fill:#b4b4b4;fill-opacity:1;fill-rule:evenodd;stroke:#969696;stroke-width:1;stroke-miterlimit:4;stroke-dasharray:none;stroke-dashoffset:0;stroke-opacity:1" />
      <text
         transform="matrix(0.79302418,-0.60919015,0.60919015,0.79302418,0,0)"
         sodipodi:linespacing="125%"
         id="text16371"
         y="691.57507"
         x="-499.41776"
         style="font-style:normal;font-weight:normal;font-size:14.58399487px;line-height:125%;font-family:sans-serif;text-align:start;letter-spacing:0px;word-spacing:0px;writing-mode:lr-tb;text-anchor:start;fill:#969696;fill-opacity:1;stroke:none;stroke-width:1px;stroke-linecap:butt;stroke-linejoin:miter;stroke-opacity:1"
         xml:space="preserve"><tspan
           y="691.57507"
           x="-499.41776"
           id="tspan16373"
           sodipodi:role="line">Y</tspan></text>
    </g>
    <g
       id="g16398"
       transform="matrix(1.1590777,0,0,1.1590777,71.487695,-143.41242)">
      <path
         inkscape:connector-curvature="0"
         id="path16400"
         d="m 51.586036,860.33504 a 13.610145,13.610145 0 0 1 -13.610144,13.6102 13.610145,13.610145 0 0 1 -13.610144,-13.6102 13.610145,13.610145 0 0 1 13.610144,-13.61009 13.610145,13.610145 0 0 1 13.610144,13.61009 z"
         style="opacity:1;fill:#c8c8c8;fill-opacity:1;fill-rule:evenodd;stroke:#969696;stroke-width:1;stroke-miterlimit:4;stroke-dasharray:none;stroke-dashoffset:0;stroke-opacity:1" />
      <path
         inkscape:connector-curvature="0"
         id="path16402"
         d="m 44.953967,863.15537 a 7.9687609,6.9536327 0 0 1 -7.968761,6.9536 7.9687609,6.9536327 0 0 1 -7.968756,-6.9536 7.9687609,6.9536327 0 0 1 7.968756,-6.95365 7.9687609,6.9536327 0 0 1 7.968761,6.95365 z"
         style="opacity:1;fill:#b4b4b4;fill-opacity:1;fill-rule:evenodd;stroke:#969696;stroke-width:1;stroke-miterlimit:4;stroke-dasharray:none;stroke-dashoffset:0;stroke-opacity:1" />
      <text
         transform="matrix(0.79302418,-0.60919015,0.60919015,0.79302418,0,0)"
         sodipodi:linespacing="125%"
         id="text16404"
         y="691.57507"
         x="-499.41776"
         style="font-style:normal;font-weight:normal;font-size:14.58399487px;line-height:125%;font-family:sans-serif;text-align:start;letter-spacing:0px;word-spacing:0px;writing-mode:lr-tb;text-anchor:start;fill:#969696;fill-opacity:1;stroke:none;stroke-width:1px;stroke-linecap:butt;stroke-linejoin:miter;stroke-opacity:1"
         xml:space="preserve"><tspan
           y="691.57507"
           x="-499.41776"
           id="tspan16406"
           sodipodi:role="line">Y</tspan></text>
    </g>
    <g
       transform="matrix(1.1590777,0,0,1.1590777,71.487695,-143.41242)"
       id="g16412">
      <path
         style="opacity:1;fill:#c8c8c8;fill-opacity:1;fill-rule:evenodd;stroke:#969696;stroke-width:1;stroke-miterlimit:4;stroke-dasharray:none;stroke-dashoffset:0;stroke-opacity:1"
         d="m 51.586036,860.33504 a 13.610145,13.610145 0 0 1 -13.610144,13.6102 13.610145,13.610145 0 0 1 -13.610144,-13.6102 13.610145,13.610145 0 0 1 13.610144,-13.61009 13.610145,13.610145 0 0 1 13.610144,13.61009 z"
         id="path16414"
         inkscape:connector-curvature="0" />
      <path
         style="opacity:1;fill:#b4b4b4;fill-opacity:1;fill-rule:evenodd;stroke:#969696;stroke-width:1;stroke-miterlimit:4;stroke-dasharray:none;stroke-dashoffset:0;stroke-opacity:1"
         d="m 44.953967,863.15537 a 7.9687609,6.9536327 0 0 1 -7.968761,6.9536 7.9687609,6.9536327 0 0 1 -7.968756,-6.9536 7.9687609,6.9536327 0 0 1 7.968756,-6.95365 7.9687609,6.9536327 0 0 1 7.968761,6.95365 z"
         id="path16416"
         inkscape:connector-curvature="0" />
      <text
         xml:space="preserve"
         style="font-style:normal;font-weight:normal;font-size:14.58399487px;line-height:125%;font-family:sans-serif;text-align:start;letter-spacing:0px;word-spacing:0px;writing-mode:lr-tb;text-anchor:start;fill:#969696;fill-opacity:1;stroke:none;stroke-width:1px;stroke-linecap:butt;stroke-linejoin:miter;stroke-opacity:1"
         x="-499.41776"
         y="691.57507"
         id="text16418"
         sodipodi:linespacing="125%"
         transform="matrix(0.79302418,-0.60919015,0.60919015,0.79302418,0,0)"><tspan
           sodipodi:role="line"
           id="tspan16420"
           x="-499.41776"
           y="691.57507">Y</tspan></text>
    </g>
    <text
       sodipodi:linespacing="200%"
       id="text5760"
       y="800.11218"
       x="51.110107"
       style="font-style:normal;font-weight:normal;font-size:8.14581203px;line-height:200%;font-family:sans-serif;text-align:center;letter-spacing:0px;word-spacing:0px;writing-mode:lr-tb;text-anchor:middle;fill:#b24141;fill-opacity:1;stroke:none;stroke-width:1px;stroke-linecap:butt;stroke-linejoin:miter;stroke-opacity:1;"
       xml:space="preserve"><tspan
         style="font-style:normal;font-variant:normal;font-weight:500;font-stretch:normal;font-size:19.00689507px;font-family:'CMU Sans Serif';-inkscape-font-specification:'CMU Sans Serif Medium';fill:#b24141;fill-opacity:1;"
         y="800.11218"
         x="51.110107"
         id="tspan5762"
         sodipodi:role="line">*</tspan></text>
    <text
       xml:space="preserve"
       style="font-style:normal;font-weight:normal;font-size:8.14581203px;line-height:200%;font-family:sans-serif;text-align:center;letter-spacing:0px;word-spacing:0px;writing-mode:lr-tb;text-anchor:middle;fill:#b24141;fill-opacity:1;stroke:none;stroke-width:1px;stroke-linecap:butt;stroke-linejoin:miter;stroke-opacity:1;"
       x="187.91521"
       y="800.11218"
       id="text5818"
       sodipodi:linespacing="200%"><tspan
         sodipodi:role="line"
         id="tspan5820"
         x="187.91521"
         y="800.11218"
         style="font-style:normal;font-variant:normal;font-weight:500;font-stretch:normal;font-size:19.00689507px;font-family:'CMU Sans Serif';-inkscape-font-specification:'CMU Sans Serif Medium';fill:#b24141;fill-opacity:1;">*</tspan></text>
    <text
       xml:space="preserve"
       style="font-style:normal;font-weight:normal;font-size:8.14581203px;line-height:200%;font-family:sans-serif;text-align:center;letter-spacing:0px;word-spacing:0px;writing-mode:lr-tb;text-anchor:middle;fill:#b24141;fill-opacity:1;stroke:none;stroke-width:1px;stroke-linecap:butt;stroke-linejoin:miter;stroke-opacity:1;"
       x="225.31061"
       y="800.11218"
       id="text5822"
       sodipodi:linespacing="200%"><tspan
         sodipodi:role="line"
         id="tspan5824"
         x="225.31061"
         y="800.11218"
         style="font-style:normal;font-variant:normal;font-weight:500;font-stretch:normal;font-size:19.00689507px;font-family:'CMU Sans Serif';-inkscape-font-specification:'CMU Sans Serif Medium';fill:#b24141;fill-opacity:1;">*</tspan></text>
  </g>
</svg>
